<svg width="170" height="50" viewBox="0 0 170 50" fill="none" xmlns="http://www.w3.org/2000/svg">
<rect width="50" height="50" rx="12" fill="#3B82F6"/>
<path d="M9.228 33.396V32.528L9.592 32.304C9.536 31.9867 9.49867 31.6787 9.48 31.38C9.46133 31.0627 9.452 30.7453 9.452 30.428C9.452 30.0733 9.452 29.728 9.452 29.392C9.47067 29.0373 9.48 28.6733 9.48 28.3C9.48 27.908 9.46133 27.516 9.424 27.124C9.38667 26.732 9.32133 26.34 9.228 25.948H9.06C9.07867 26.9373 9.10667 27.908 9.144 28.86C9.2 29.812 9.228 30.7827 9.228 31.772C9.13467 30.3533 9.02267 28.9347 8.892 27.516C8.78 26.0973 8.724 24.66 8.724 23.204C8.724 22.7747 8.74267 22.3453 8.78 21.916C8.836 21.468 8.892 21.0293 8.948 20.6L7.1 21.076L7.128 20.992C7.09067 20.936 7.03467 20.8333 6.96 20.684C6.904 20.5347 6.876 20.4413 6.876 20.404C6.876 20.3107 6.96933 20.2173 7.156 20.124C7.36133 20.012 7.58533 19.9187 7.828 19.844C8.08933 19.7693 8.332 19.704 8.556 19.648C8.79867 19.592 8.96667 19.5547 9.06 19.536L8.976 19.2C8.82667 19.2373 8.51867 19.284 8.052 19.34C7.604 19.3773 7.14667 19.396 6.68 19.396C6.30667 19.396 5.98 19.368 5.7 19.312C5.42 19.256 5.28 19.1347 5.28 18.948C5.28 18.7427 5.46667 18.5373 5.84 18.332C6.21333 18.1267 6.68933 17.94 7.268 17.772C7.86533 17.5853 8.51867 17.4173 9.228 17.268C9.93733 17.1187 10.6187 16.988 11.272 16.876C11.9253 16.764 12.5133 16.68 13.036 16.624C13.5587 16.568 13.9227 16.54 14.128 16.54C15.08 16.54 15.9853 16.6613 16.844 16.904C17.7213 17.128 18.4867 17.492 19.14 17.996C19.7933 18.4813 20.3067 19.1067 20.68 19.872C21.072 20.6373 21.268 21.5427 21.268 22.588C21.268 23.0173 21.2027 23.4653 21.072 23.932C20.9413 24.38 20.736 24.8187 20.456 25.248C20.1947 25.6587 19.8493 26.032 19.42 26.368C19.0093 26.704 18.5147 26.9467 17.936 27.096C18.9067 27.2267 19.7373 27.4507 20.428 27.768C21.1373 28.0853 21.7067 28.468 22.136 28.916C22.584 29.364 22.9107 29.868 23.116 30.428C23.3213 30.988 23.424 31.5853 23.424 32.22C23.424 33.0413 23.256 33.7413 22.92 34.32C22.6027 34.8987 22.1733 35.384 21.632 35.776C21.0907 36.168 20.4747 36.4667 19.784 36.672C19.0933 36.896 18.3747 37.064 17.628 37.176C16.8813 37.288 16.144 37.3533 15.416 37.372C14.688 37.4093 14.0253 37.428 13.428 37.428C13.2787 37.428 12.9893 37.4187 12.56 37.4C12.1493 37.3813 11.72 37.344 11.272 37.288C10.824 37.232 10.4227 37.148 10.068 37.036C9.732 36.9427 9.564 36.812 9.564 36.644L9.592 36.504C10.376 36.6347 11.16 36.7373 11.944 36.812C12.728 36.9053 13.512 36.952 14.296 36.952C14.8933 36.952 15.4813 36.9147 16.06 36.84C16.6387 36.7653 17.2173 36.672 17.796 36.56C16.7507 36.7467 15.6587 36.84 14.52 36.84C13.7173 36.84 12.9147 36.8027 12.112 36.728C11.328 36.6533 10.544 36.5507 9.76 36.42L9.9 36.084L9.844 35.888C9.788 35.9067 9.704 35.916 9.592 35.916C9.40533 35.916 9.19067 35.8787 8.948 35.804C8.70533 35.7293 8.472 35.636 8.248 35.524C8.04267 35.412 7.86533 35.2813 7.716 35.132C7.56667 34.9827 7.492 34.8333 7.492 34.684C7.492 34.5907 7.56667 34.516 7.716 34.46C7.86533 34.404 8.03333 34.3667 8.22 34.348C8.42533 34.3107 8.62133 34.2827 8.808 34.264C8.99467 34.2453 9.12533 34.2267 9.2 34.208L9.228 33.396ZM12.028 20.124C12.0653 20.236 12.1027 20.4787 12.14 20.852C12.196 21.2067 12.2427 21.6267 12.28 22.112C12.336 22.5973 12.3827 23.12 12.42 23.68C12.4573 24.24 12.4853 24.7813 12.504 25.304C12.5413 25.808 12.5693 26.2653 12.588 26.676C12.6067 27.068 12.616 27.348 12.616 27.516C12.616 28.5053 12.5787 29.4947 12.504 30.484C12.4293 31.4547 12.392 32.4347 12.392 33.424C12.392 33.7973 12.5133 34.0307 12.756 34.124C13.0173 34.2173 13.2973 34.264 13.596 34.264C14.492 34.264 15.3787 34.236 16.256 34.18C17.1333 34.1053 17.992 33.9093 18.832 33.592L18.916 33.928C19.2893 33.7413 19.616 33.5173 19.896 33.256C20.1947 32.976 20.344 32.612 20.344 32.164C20.344 31.66 20.1853 31.2307 19.868 30.876C19.5507 30.5027 19.1587 30.204 18.692 29.98C18.244 29.756 17.7587 29.588 17.236 29.476C16.732 29.364 16.284 29.308 15.892 29.308C15.8547 29.308 15.78 29.336 15.668 29.392C15.556 29.4293 15.472 29.4573 15.416 29.476C15.6773 29.4947 16.004 29.5413 16.396 29.616C16.788 29.6907 17.1893 29.7933 17.6 29.924C18.0107 30.036 18.4027 30.1853 18.776 30.372C19.1493 30.5587 19.4573 30.764 19.7 30.988C19.3453 30.708 18.86 30.4747 18.244 30.288C17.6093 30.1013 16.956 29.952 16.284 29.84C15.6307 29.728 15.024 29.644 14.464 29.588C13.904 29.5133 13.5213 29.4573 13.316 29.42L13.176 26.312H13.232C13.7173 26.312 14.2213 26.228 14.744 26.06C15.2853 25.8733 15.78 25.6213 16.228 25.304C16.676 24.968 17.0493 24.576 17.348 24.128C17.6467 23.6613 17.796 23.1573 17.796 22.616C17.796 22.0933 17.684 21.664 17.46 21.328C17.236 20.992 16.9373 20.7307 16.564 20.544C16.2093 20.3387 15.808 20.208 15.36 20.152C14.912 20.0773 14.4733 20.04 14.044 20.04C13.708 20.04 13.372 20.0587 13.036 20.096C12.7 20.1147 12.364 20.124 12.028 20.124ZM12.42 34.852C12.7373 34.8893 13.036 34.9173 13.316 34.936C13.6147 34.9547 13.9227 34.964 14.24 34.964C14.5387 34.964 14.9027 34.9547 15.332 34.936C15.78 34.8987 16.2467 34.8427 16.732 34.768C17.236 34.6933 17.7307 34.5907 18.216 34.46C18.72 34.3293 19.168 34.1613 19.56 33.956C19.952 33.7507 20.2693 33.4987 20.512 33.2C20.7733 32.9013 20.904 32.5467 20.904 32.136C20.904 31.912 20.8667 31.6973 20.792 31.492C20.7173 31.2867 20.6147 31.0907 20.484 30.904C20.5773 31.0533 20.652 31.2213 20.708 31.408C20.7827 31.576 20.82 31.7533 20.82 31.94C20.82 32.5747 20.6053 33.0787 20.176 33.452C19.7467 33.8253 19.224 34.1147 18.608 34.32C18.0107 34.5067 17.3853 34.628 16.732 34.684C16.0787 34.74 15.5187 34.768 15.052 34.768C14.6227 34.768 14.184 34.7587 13.736 34.74C13.3067 34.7027 12.8773 34.6653 12.448 34.628L12.42 34.852ZM9.9 34.404C9.93733 33.7507 9.956 33.088 9.956 32.416V30.428C9.956 30.0547 9.94667 29.6907 9.928 29.336C9.90933 29 9.88133 28.664 9.844 28.328C9.844 28.8133 9.844 29.2987 9.844 29.784C9.86267 30.288 9.872 30.792 9.872 31.296C9.872 31.8187 9.86267 32.332 9.844 32.836C9.82533 33.34 9.77867 33.844 9.704 34.348L9.9 34.404ZM15.192 26.396C15.528 26.1907 15.8453 25.976 16.144 25.752C16.4613 25.528 16.7507 25.2667 17.012 24.968C16.9187 24.968 16.872 24.9307 16.872 24.856C16.2933 25.4907 15.5747 25.9853 14.716 26.34L15.192 26.396ZM16.648 29C17.208 29.0933 17.8053 29.2707 18.44 29.532C18.9813 29.756 19.4667 30.0173 19.896 30.316C19.4853 29.98 19 29.6907 18.44 29.448C17.824 29.1493 17.236 29 16.676 29H16.648ZM10.264 20.74L10.46 20.292L10.012 20.348C10.012 20.3853 10.012 20.4227 10.012 20.46C10.0307 20.4787 10.04 20.5067 10.04 20.544C10.04 20.5813 10.0307 20.6187 10.012 20.656C10.012 20.6747 10.012 20.7027 10.012 20.74H10.264ZM22.556 33.536C22.7427 33.0507 22.836 32.5933 22.836 32.164V31.856C22.836 31.744 22.8267 31.6413 22.808 31.548C22.808 32.1453 22.7427 32.7053 22.612 33.228C22.5 33.732 22.248 34.208 21.856 34.656C22.1547 34.3573 22.388 33.984 22.556 33.536ZM12.056 28.944C11.9813 29.2987 11.9347 29.6533 11.916 30.008C11.8973 30.3067 11.888 30.6147 11.888 30.932C11.9067 30.6333 11.9347 30.3347 11.972 30.036C12.0093 29.6813 12.0373 29.3173 12.056 28.944ZM21.8 34.712C21.4453 35.0853 21.0533 35.384 20.624 35.608C20.1947 35.832 19.7467 36.0373 19.28 36.224C19.7653 36.056 20.2227 35.86 20.652 35.636C21.0813 35.412 21.464 35.104 21.8 34.712ZM20.932 28.44C21.1 28.5893 21.2587 28.7387 21.408 28.888L21.8 29.28C21.688 29.112 21.5667 28.9627 21.436 28.832C21.3053 28.6827 21.1373 28.552 20.932 28.44ZM11.888 34.096V33.256C11.8693 33.4053 11.8507 33.5453 11.832 33.676C11.832 33.8067 11.832 33.9467 11.832 34.096H11.888ZM19.756 31.044C20.0547 31.2867 20.204 31.576 20.204 31.912V31.968C20.148 31.632 19.9987 31.324 19.756 31.044ZM19.672 33.116C19.504 33.284 19.2987 33.4147 19.056 33.508L19.672 33.116ZM11.776 34.768H11.888V34.572H11.776V34.768ZM20.008 32.64C19.9893 32.64 19.98 32.6213 19.98 32.584C19.98 32.5467 19.9893 32.5 20.008 32.444C20.0453 32.3693 20.0827 32.3133 20.12 32.276L20.008 32.64ZM20.204 32.136C20.204 32.1547 20.1853 32.1827 20.148 32.22L20.204 32.108V32.136ZM42.3093 16.624C42.4587 16.624 42.5427 16.7173 42.5613 16.904C42.5987 17.072 42.6173 17.24 42.6173 17.408L42.5893 17.604C42.5707 17.716 42.5427 17.8653 42.5053 18.052C42.468 18.22 42.4213 18.4067 42.3653 18.612C42.328 18.8173 42.272 19.004 42.1973 19.172C41.936 19.9933 41.7213 20.8053 41.5533 21.608C41.404 22.4107 41.2827 23.2227 41.1893 24.044C41.096 24.8467 41.0213 25.6587 40.9653 26.48C40.9093 27.3013 40.8533 28.132 40.7973 28.972C40.872 28.2067 40.9373 27.404 40.9933 26.564C41.068 25.724 41.1613 24.884 41.2733 24.044C41.3853 23.1853 41.5253 22.3547 41.6933 21.552C41.88 20.7307 42.132 19.9653 42.4493 19.256C42.1693 21.048 41.936 22.8307 41.7493 24.604C41.5813 26.3773 41.4413 28.1693 41.3293 29.98L40.9933 30.148C40.9933 31.2867 40.8813 32.3787 40.6573 33.424C40.4333 34.4507 40.1813 35.5147 39.9013 36.616C39.808 36.616 39.696 36.616 39.5653 36.616C39.4533 36.6347 39.3413 36.644 39.2293 36.644C39.136 36.644 39.0053 36.616 38.8373 36.56C38.6693 36.504 38.492 36.4293 38.3053 36.336C38.1187 36.2613 37.9227 36.168 37.7173 36.056C37.5307 35.9627 37.372 35.8693 37.2413 35.776C36.4387 35.2533 35.72 34.6093 35.0853 33.844C34.4507 33.06 33.8813 32.2013 33.3773 31.268C32.8733 30.3347 32.4253 29.3547 32.0333 28.328C31.6413 27.2827 31.268 26.2373 30.9133 25.192C30.5773 24.1467 30.2507 23.1293 29.9333 22.14C29.616 21.132 29.2987 20.208 28.9813 19.368L28.8133 19.508C29.1307 20.4413 29.4387 21.4587 29.7373 22.56C30.0547 23.6427 30.3813 24.7533 30.7173 25.892C31.072 27.012 31.464 28.1227 31.8933 29.224C32.3413 30.3253 32.8547 31.352 33.4333 32.304C34.0307 33.256 34.7213 34.1053 35.5053 34.852C36.2893 35.58 37.204 36.1493 38.2493 36.56C37.3533 36.3173 36.5507 35.9067 35.8413 35.328C35.1507 34.7307 34.516 34.0307 33.9373 33.228C33.3773 32.4253 32.8733 31.5573 32.4253 30.624C31.996 29.672 31.604 28.7107 31.2493 27.74C30.8947 26.7693 30.5773 25.8173 30.2973 24.884C30.0173 23.9507 29.756 23.1013 29.5133 22.336C29.5133 23.12 29.5507 23.8853 29.6253 24.632C29.7187 25.3787 29.7653 26.1347 29.7653 26.9C29.7653 28.188 29.8027 29.4853 29.8773 30.792C29.952 32.08 30.0267 33.368 30.1013 34.656L29.4853 34.768C29.336 34.768 29.224 34.6467 29.1493 34.404C29.0747 34.1427 29.0187 33.8533 28.9813 33.536C28.944 33.2187 28.916 32.92 28.8973 32.64C28.8973 32.3413 28.8973 32.1547 28.8973 32.08H28.5613C28.5613 32.2293 28.552 32.528 28.5333 32.976C28.5333 33.4053 28.5053 33.8533 28.4493 34.32C28.3933 34.7867 28.3 35.2067 28.1693 35.58C28.0573 35.9533 27.8893 36.14 27.6653 36.14C27.516 36.14 27.376 35.8973 27.2453 35.412C27.1147 34.908 26.984 34.2547 26.8533 33.452C26.7227 32.6307 26.6013 31.7067 26.4893 30.68C26.3773 29.6347 26.284 28.58 26.2093 27.516C26.1347 26.452 26.0693 25.416 26.0133 24.408C25.976 23.4 25.9573 22.5133 25.9573 21.748C25.9573 20.7587 26.0227 19.7787 26.1533 18.808C26.3027 17.8373 26.536 16.876 26.8533 15.924L29.9333 15.336C30.0267 15.4667 30.1107 15.588 30.1853 15.7C30.26 15.7933 30.344 15.896 30.4373 16.008C30.9787 16.792 31.4453 17.6507 31.8373 18.584C32.2293 19.4987 32.584 20.46 32.9013 21.468C33.2187 22.4573 33.5173 23.4653 33.7973 24.492C34.096 25.5 34.4227 26.4893 34.7773 27.46C35.132 28.412 35.5427 29.3173 36.0093 30.176C36.476 31.0347 37.0453 31.8 37.7173 32.472C37.792 31.9307 37.8573 31.212 37.9133 30.316C37.988 29.42 38.0627 28.4587 38.1373 27.432C38.2307 26.4053 38.324 25.3787 38.4173 24.352C38.5107 23.3067 38.6227 22.364 38.7533 21.524C38.9027 20.6653 39.0707 19.9747 39.2573 19.452C39.4627 18.9107 39.696 18.64 39.9573 18.64L40.1253 18.752C39.7333 19.9093 39.4627 21.076 39.3133 22.252C39.1827 23.428 39.08 24.6133 39.0053 25.808C38.9493 27.0027 38.8747 28.1973 38.7813 29.392C38.7067 30.568 38.5293 31.7347 38.2493 32.892L38.4173 32.976C38.436 32.808 38.4547 32.64 38.4733 32.472C38.492 32.2853 38.52 32.108 38.5573 31.94C38.7067 30.8573 38.8093 29.7747 38.8653 28.692C38.94 27.5907 39.0147 26.4893 39.0893 25.388C39.1827 24.2867 39.304 23.1947 39.4533 22.112C39.6213 21.0293 39.8733 19.9653 40.2093 18.92L40.4893 19.116C40.6013 19.0413 40.704 18.8733 40.7973 18.612C40.8907 18.332 41.0027 18.052 41.1333 17.772C41.264 17.4733 41.4227 17.212 41.6093 16.988C41.796 16.7453 42.0293 16.624 42.3093 16.624ZM39.4533 36.392C39.6587 35.72 39.8453 35.048 40.0133 34.376C40.1813 33.704 40.312 33.0133 40.4053 32.304C40.2933 32.976 40.144 33.6387 39.9573 34.292C39.7893 34.9267 39.6213 35.5707 39.4533 36.224C38.3333 35.832 37.4187 35.4027 36.7093 34.936C36.0187 34.4693 35.4307 33.9373 34.9453 33.34C34.4787 32.7427 34.0587 32.0707 33.6853 31.324C33.3867 30.7453 33.06 30.1013 32.7053 29.392C32.9293 29.8587 33.1253 30.288 33.2933 30.68C33.5547 31.2213 33.8067 31.7253 34.0493 32.192C34.3107 32.64 34.5813 33.0507 34.8613 33.424C35.1413 33.7787 35.4867 34.124 35.8973 34.46C36.308 34.7773 36.7933 35.0947 37.3533 35.412C37.932 35.7107 38.632 36.0373 39.4533 36.392ZM38.1653 33.592C37.9787 33.4613 37.736 33.2093 37.4373 32.836C37.1573 32.4627 36.868 32.08 36.5693 31.688C36.2893 31.2773 36.0373 30.9133 35.8133 30.596C35.5893 30.2787 35.4587 30.1107 35.4213 30.092C35.72 30.7827 36.1027 31.4173 36.5693 31.996C37.0547 32.556 37.5587 33.088 38.0813 33.592H38.1653Z" fill="white"/>
<path d="M80.032 16.624C80.1813 16.624 80.2653 16.7173 80.284 16.904C80.3213 17.072 80.34 17.24 80.34 17.408L80.312 17.604C80.2933 17.716 80.2653 17.8653 80.228 18.052C80.1907 18.22 80.144 18.4067 80.088 18.612C80.0507 18.8173 79.9947 19.004 79.92 19.172C79.6587 19.9933 79.444 20.8053 79.276 21.608C79.1267 22.4107 79.0053 23.2227 78.912 24.044C78.8187 24.8467 78.744 25.6587 78.688 26.48C78.632 27.3013 78.576 28.132 78.52 28.972C78.5947 28.2067 78.66 27.404 78.716 26.564C78.7907 25.724 78.884 24.884 78.996 24.044C79.108 23.1853 79.248 22.3547 79.416 21.552C79.6027 20.7307 79.8547 19.9653 80.172 19.256C79.892 21.048 79.6587 22.8307 79.472 24.604C79.304 26.3773 79.164 28.1693 79.052 29.98L78.716 30.148C78.716 31.2867 78.604 32.3787 78.38 33.424C78.156 34.4507 77.904 35.5147 77.624 36.616C77.5307 36.616 77.4187 36.616 77.288 36.616C77.176 36.6347 77.064 36.644 76.952 36.644C76.8587 36.644 76.728 36.616 76.56 36.56C76.392 36.504 76.2147 36.4293 76.028 36.336C75.8413 36.2613 75.6453 36.168 75.44 36.056C75.2533 35.9627 75.0947 35.8693 74.964 35.776C74.1613 35.2533 73.4427 34.6093 72.808 33.844C72.1733 33.06 71.604 32.2013 71.1 31.268C70.596 30.3347 70.148 29.3547 69.756 28.328C69.364 27.2827 68.9907 26.2373 68.636 25.192C68.3 24.1467 67.9733 23.1293 67.656 22.14C67.3387 21.132 67.0213 20.208 66.704 19.368L66.536 19.508C66.8533 20.4413 67.1613 21.4587 67.46 22.56C67.7773 23.6427 68.104 24.7533 68.44 25.892C68.7947 27.012 69.1867 28.1227 69.616 29.224C70.064 30.3253 70.5773 31.352 71.156 32.304C71.7533 33.256 72.444 34.1053 73.228 34.852C74.012 35.58 74.9267 36.1493 75.972 36.56C75.076 36.3173 74.2733 35.9067 73.564 35.328C72.8733 34.7307 72.2387 34.0307 71.66 33.228C71.1 32.4253 70.596 31.5573 70.148 30.624C69.7187 29.672 69.3267 28.7107 68.972 27.74C68.6173 26.7693 68.3 25.8173 68.02 24.884C67.74 23.9507 67.4787 23.1013 67.236 22.336C67.236 23.12 67.2733 23.8853 67.348 24.632C67.4413 25.3787 67.488 26.1347 67.488 26.9C67.488 28.188 67.5253 29.4853 67.6 30.792C67.6747 32.08 67.7493 33.368 67.824 34.656L67.208 34.768C67.0587 34.768 66.9467 34.6467 66.872 34.404C66.7973 34.1427 66.7413 33.8533 66.704 33.536C66.6667 33.2187 66.6387 32.92 66.62 32.64C66.62 32.3413 66.62 32.1547 66.62 32.08H66.284C66.284 32.2293 66.2747 32.528 66.256 32.976C66.256 33.4053 66.228 33.8533 66.172 34.32C66.116 34.7867 66.0227 35.2067 65.892 35.58C65.78 35.9533 65.612 36.14 65.388 36.14C65.2387 36.14 65.0987 35.8973 64.968 35.412C64.8373 34.908 64.7067 34.2547 64.576 33.452C64.4453 32.6307 64.324 31.7067 64.212 30.68C64.1 29.6347 64.0067 28.58 63.932 27.516C63.8573 26.452 63.792 25.416 63.736 24.408C63.6987 23.4 63.68 22.5133 63.68 21.748C63.68 20.7587 63.7453 19.7787 63.876 18.808C64.0253 17.8373 64.2587 16.876 64.576 15.924L67.656 15.336C67.7493 15.4667 67.8333 15.588 67.908 15.7C67.9827 15.7933 68.0667 15.896 68.16 16.008C68.7013 16.792 69.168 17.6507 69.56 18.584C69.952 19.4987 70.3067 20.46 70.624 21.468C70.9413 22.4573 71.24 23.4653 71.52 24.492C71.8187 25.5 72.1453 26.4893 72.5 27.46C72.8547 28.412 73.2653 29.3173 73.732 30.176C74.1987 31.0347 74.768 31.8 75.44 32.472C75.5147 31.9307 75.58 31.212 75.636 30.316C75.7107 29.42 75.7853 28.4587 75.86 27.432C75.9533 26.4053 76.0467 25.3787 76.14 24.352C76.2333 23.3067 76.3453 22.364 76.476 21.524C76.6253 20.6653 76.7933 19.9747 76.98 19.452C77.1853 18.9107 77.4187 18.64 77.68 18.64L77.848 18.752C77.456 19.9093 77.1853 21.076 77.036 22.252C76.9053 23.428 76.8027 24.6133 76.728 25.808C76.672 27.0027 76.5973 28.1973 76.504 29.392C76.4293 30.568 76.252 31.7347 75.972 32.892L76.14 32.976C76.1587 32.808 76.1773 32.64 76.196 32.472C76.2147 32.2853 76.2427 32.108 76.28 31.94C76.4293 30.8573 76.532 29.7747 76.588 28.692C76.6627 27.5907 76.7373 26.4893 76.812 25.388C76.9053 24.2867 77.0267 23.1947 77.176 22.112C77.344 21.0293 77.596 19.9653 77.932 18.92L78.212 19.116C78.324 19.0413 78.4267 18.8733 78.52 18.612C78.6133 18.332 78.7253 18.052 78.856 17.772C78.9867 17.4733 79.1453 17.212 79.332 16.988C79.5187 16.7453 79.752 16.624 80.032 16.624ZM77.176 36.392C77.3813 35.72 77.568 35.048 77.736 34.376C77.904 33.704 78.0347 33.0133 78.128 32.304C78.016 32.976 77.8667 33.6387 77.68 34.292C77.512 34.9267 77.344 35.5707 77.176 36.224C76.056 35.832 75.1413 35.4027 74.432 34.936C73.7413 34.4693 73.1533 33.9373 72.668 33.34C72.2013 32.7427 71.7813 32.0707 71.408 31.324C71.1093 30.7453 70.7827 30.1013 70.428 29.392C70.652 29.8587 70.848 30.288 71.016 30.68C71.2773 31.2213 71.5293 31.7253 71.772 32.192C72.0333 32.64 72.304 33.0507 72.584 33.424C72.864 33.7787 73.2093 34.124 73.62 34.46C74.0307 34.7773 74.516 35.0947 75.076 35.412C75.6547 35.7107 76.3547 36.0373 77.176 36.392ZM75.888 33.592C75.7013 33.4613 75.4587 33.2093 75.16 32.836C74.88 32.4627 74.5907 32.08 74.292 31.688C74.012 31.2773 73.76 30.9133 73.536 30.596C73.312 30.2787 73.1813 30.1107 73.144 30.092C73.4427 30.7827 73.8253 31.4173 74.292 31.996C74.7773 32.556 75.2813 33.088 75.804 33.592H75.888ZM86.2436 33.396V32.528L86.6076 32.304C86.5516 31.9867 86.5143 31.6787 86.4956 31.38C86.477 31.0627 86.4676 30.7453 86.4676 30.428C86.4676 30.0733 86.4676 29.728 86.4676 29.392C86.4863 29.0373 86.4956 28.6733 86.4956 28.3C86.4956 27.908 86.477 27.516 86.4396 27.124C86.4023 26.732 86.337 26.34 86.2436 25.948H86.0756C86.0943 26.9373 86.1223 27.908 86.1596 28.86C86.2156 29.812 86.2436 30.7827 86.2436 31.772C86.1503 30.3533 86.0383 28.9347 85.9076 27.516C85.7956 26.0973 85.7396 24.66 85.7396 23.204C85.7396 22.7747 85.7583 22.3453 85.7956 21.916C85.8516 21.468 85.9076 21.0293 85.9636 20.6L84.1156 21.076L84.1436 20.992C84.1063 20.936 84.0503 20.8333 83.9756 20.684C83.9196 20.5347 83.8916 20.4413 83.8916 20.404C83.8916 20.3107 83.985 20.2173 84.1716 20.124C84.377 20.012 84.601 19.9187 84.8436 19.844C85.105 19.7693 85.3476 19.704 85.5716 19.648C85.8143 19.592 85.9823 19.5547 86.0756 19.536L85.9916 19.2C85.8423 19.2373 85.5343 19.284 85.0676 19.34C84.6196 19.3773 84.1623 19.396 83.6956 19.396C83.3223 19.396 82.9956 19.368 82.7156 19.312C82.4356 19.256 82.2956 19.1347 82.2956 18.948C82.2956 18.7427 82.4823 18.5373 82.8556 18.332C83.229 18.1267 83.705 17.94 84.2836 17.772C84.881 17.5853 85.5343 17.4173 86.2436 17.268C86.953 17.1187 87.6343 16.988 88.2876 16.876C88.941 16.764 89.529 16.68 90.0516 16.624C90.5743 16.568 90.9383 16.54 91.1436 16.54C92.0956 16.54 93.001 16.6613 93.8596 16.904C94.737 17.128 95.5023 17.492 96.1556 17.996C96.809 18.4813 97.3223 19.1067 97.6956 19.872C98.0876 20.6373 98.2836 21.5427 98.2836 22.588C98.2836 23.0173 98.2183 23.4653 98.0876 23.932C97.957 24.38 97.7516 24.8187 97.4716 25.248C97.2103 25.6587 96.865 26.032 96.4356 26.368C96.025 26.704 95.5303 26.9467 94.9516 27.096C95.9223 27.2267 96.753 27.4507 97.4436 27.768C98.153 28.0853 98.7223 28.468 99.1516 28.916C99.5996 29.364 99.9263 29.868 100.132 30.428C100.337 30.988 100.44 31.5853 100.44 32.22C100.44 33.0413 100.272 33.7413 99.9356 34.32C99.6183 34.8987 99.189 35.384 98.6476 35.776C98.1063 36.168 97.4903 36.4667 96.7996 36.672C96.109 36.896 95.3903 37.064 94.6436 37.176C93.897 37.288 93.1596 37.3533 92.4316 37.372C91.7036 37.4093 91.041 37.428 90.4436 37.428C90.2943 37.428 90.005 37.4187 89.5756 37.4C89.165 37.3813 88.7356 37.344 88.2876 37.288C87.8396 37.232 87.4383 37.148 87.0836 37.036C86.7476 36.9427 86.5796 36.812 86.5796 36.644L86.6076 36.504C87.3916 36.6347 88.1756 36.7373 88.9596 36.812C89.7436 36.9053 90.5276 36.952 91.3116 36.952C91.909 36.952 92.497 36.9147 93.0756 36.84C93.6543 36.7653 94.233 36.672 94.8116 36.56C93.7663 36.7467 92.6743 36.84 91.5356 36.84C90.733 36.84 89.9303 36.8027 89.1276 36.728C88.3436 36.6533 87.5596 36.5507 86.7756 36.42L86.9156 36.084L86.8596 35.888C86.8036 35.9067 86.7196 35.916 86.6076 35.916C86.421 35.916 86.2063 35.8787 85.9636 35.804C85.721 35.7293 85.4876 35.636 85.2636 35.524C85.0583 35.412 84.881 35.2813 84.7316 35.132C84.5823 34.9827 84.5076 34.8333 84.5076 34.684C84.5076 34.5907 84.5823 34.516 84.7316 34.46C84.881 34.404 85.049 34.3667 85.2356 34.348C85.441 34.3107 85.637 34.2827 85.8236 34.264C86.0103 34.2453 86.141 34.2267 86.2156 34.208L86.2436 33.396ZM89.0436 20.124C89.081 20.236 89.1183 20.4787 89.1556 20.852C89.2116 21.2067 89.2583 21.6267 89.2956 22.112C89.3516 22.5973 89.3983 23.12 89.4356 23.68C89.473 24.24 89.501 24.7813 89.5196 25.304C89.557 25.808 89.585 26.2653 89.6036 26.676C89.6223 27.068 89.6316 27.348 89.6316 27.516C89.6316 28.5053 89.5943 29.4947 89.5196 30.484C89.445 31.4547 89.4076 32.4347 89.4076 33.424C89.4076 33.7973 89.529 34.0307 89.7716 34.124C90.033 34.2173 90.313 34.264 90.6116 34.264C91.5076 34.264 92.3943 34.236 93.2716 34.18C94.149 34.1053 95.0076 33.9093 95.8476 33.592L95.9316 33.928C96.305 33.7413 96.6316 33.5173 96.9116 33.256C97.2103 32.976 97.3596 32.612 97.3596 32.164C97.3596 31.66 97.201 31.2307 96.8836 30.876C96.5663 30.5027 96.1743 30.204 95.7076 29.98C95.2596 29.756 94.7743 29.588 94.2516 29.476C93.7476 29.364 93.2996 29.308 92.9076 29.308C92.8703 29.308 92.7956 29.336 92.6836 29.392C92.5716 29.4293 92.4876 29.4573 92.4316 29.476C92.693 29.4947 93.0196 29.5413 93.4116 29.616C93.8036 29.6907 94.205 29.7933 94.6156 29.924C95.0263 30.036 95.4183 30.1853 95.7916 30.372C96.165 30.5587 96.473 30.764 96.7156 30.988C96.361 30.708 95.8756 30.4747 95.2596 30.288C94.625 30.1013 93.9716 29.952 93.2996 29.84C92.6463 29.728 92.0396 29.644 91.4796 29.588C90.9196 29.5133 90.537 29.4573 90.3316 29.42L90.1916 26.312H90.2476C90.733 26.312 91.237 26.228 91.7596 26.06C92.301 25.8733 92.7956 25.6213 93.2436 25.304C93.6916 24.968 94.065 24.576 94.3636 24.128C94.6623 23.6613 94.8116 23.1573 94.8116 22.616C94.8116 22.0933 94.6996 21.664 94.4756 21.328C94.2516 20.992 93.953 20.7307 93.5796 20.544C93.225 20.3387 92.8236 20.208 92.3756 20.152C91.9276 20.0773 91.489 20.04 91.0596 20.04C90.7236 20.04 90.3876 20.0587 90.0516 20.096C89.7156 20.1147 89.3796 20.124 89.0436 20.124ZM89.4356 34.852C89.753 34.8893 90.0516 34.9173 90.3316 34.936C90.6303 34.9547 90.9383 34.964 91.2556 34.964C91.5543 34.964 91.9183 34.9547 92.3476 34.936C92.7956 34.8987 93.2623 34.8427 93.7476 34.768C94.2516 34.6933 94.7463 34.5907 95.2316 34.46C95.7356 34.3293 96.1836 34.1613 96.5756 33.956C96.9676 33.7507 97.285 33.4987 97.5276 33.2C97.789 32.9013 97.9196 32.5467 97.9196 32.136C97.9196 31.912 97.8823 31.6973 97.8076 31.492C97.733 31.2867 97.6303 31.0907 97.4996 30.904C97.593 31.0533 97.6676 31.2213 97.7236 31.408C97.7983 31.576 97.8356 31.7533 97.8356 31.94C97.8356 32.5747 97.621 33.0787 97.1916 33.452C96.7623 33.8253 96.2396 34.1147 95.6236 34.32C95.0263 34.5067 94.401 34.628 93.7476 34.684C93.0943 34.74 92.5343 34.768 92.0676 34.768C91.6383 34.768 91.1996 34.7587 90.7516 34.74C90.3223 34.7027 89.893 34.6653 89.4636 34.628L89.4356 34.852ZM86.9156 34.404C86.953 33.7507 86.9716 33.088 86.9716 32.416V30.428C86.9716 30.0547 86.9623 29.6907 86.9436 29.336C86.925 29 86.897 28.664 86.8596 28.328C86.8596 28.8133 86.8596 29.2987 86.8596 29.784C86.8783 30.288 86.8876 30.792 86.8876 31.296C86.8876 31.8187 86.8783 32.332 86.8596 32.836C86.841 33.34 86.7943 33.844 86.7196 34.348L86.9156 34.404ZM92.2076 26.396C92.5436 26.1907 92.861 25.976 93.1596 25.752C93.477 25.528 93.7663 25.2667 94.0276 24.968C93.9343 24.968 93.8876 24.9307 93.8876 24.856C93.309 25.4907 92.5903 25.9853 91.7316 26.34L92.2076 26.396ZM93.6636 29C94.2236 29.0933 94.821 29.2707 95.4556 29.532C95.997 29.756 96.4823 30.0173 96.9116 30.316C96.501 29.98 96.0156 29.6907 95.4556 29.448C94.8396 29.1493 94.2516 29 93.6916 29H93.6636ZM87.2796 20.74L87.4756 20.292L87.0276 20.348C87.0276 20.3853 87.0276 20.4227 87.0276 20.46C87.0463 20.4787 87.0556 20.5067 87.0556 20.544C87.0556 20.5813 87.0463 20.6187 87.0276 20.656C87.0276 20.6747 87.0276 20.7027 87.0276 20.74H87.2796ZM99.5716 33.536C99.7583 33.0507 99.8516 32.5933 99.8516 32.164V31.856C99.8516 31.744 99.8423 31.6413 99.8236 31.548C99.8236 32.1453 99.7583 32.7053 99.6276 33.228C99.5156 33.732 99.2636 34.208 98.8716 34.656C99.1703 34.3573 99.4036 33.984 99.5716 33.536ZM89.0716 28.944C88.997 29.2987 88.9503 29.6533 88.9316 30.008C88.913 30.3067 88.9036 30.6147 88.9036 30.932C88.9223 30.6333 88.9503 30.3347 88.9876 30.036C89.025 29.6813 89.053 29.3173 89.0716 28.944ZM98.8156 34.712C98.461 35.0853 98.069 35.384 97.6396 35.608C97.2103 35.832 96.7623 36.0373 96.2956 36.224C96.781 36.056 97.2383 35.86 97.6676 35.636C98.097 35.412 98.4796 35.104 98.8156 34.712ZM97.9476 28.44C98.1156 28.5893 98.2743 28.7387 98.4236 28.888L98.8156 29.28C98.7036 29.112 98.5823 28.9627 98.4516 28.832C98.321 28.6827 98.153 28.552 97.9476 28.44ZM88.9036 34.096V33.256C88.885 33.4053 88.8663 33.5453 88.8476 33.676C88.8476 33.8067 88.8476 33.9467 88.8476 34.096H88.9036ZM96.7716 31.044C97.0703 31.2867 97.2196 31.576 97.2196 31.912V31.968C97.1636 31.632 97.0143 31.324 96.7716 31.044ZM96.6876 33.116C96.5196 33.284 96.3143 33.4147 96.0716 33.508L96.6876 33.116ZM88.7916 34.768H88.9036V34.572H88.7916V34.768ZM97.0236 32.64C97.005 32.64 96.9956 32.6213 96.9956 32.584C96.9956 32.5467 97.005 32.5 97.0236 32.444C97.061 32.3693 97.0983 32.3133 97.1356 32.276L97.0236 32.64ZM97.2196 32.136C97.2196 32.1547 97.201 32.1827 97.1636 32.22L97.2196 32.108V32.136ZM108.629 19.144C108.648 19.2373 108.75 19.284 108.937 19.284H108.993C109.105 19.284 109.18 19.2933 109.217 19.312C110.188 19.6107 111.149 20.0493 112.101 20.628C113.072 21.188 113.94 21.8693 114.705 22.672C115.489 23.456 116.114 24.352 116.581 25.36C117.066 26.368 117.309 27.4507 117.309 28.608C117.309 29.616 117.113 30.5867 116.721 31.52C116.329 32.4533 115.788 33.2653 115.097 33.956C115.806 33.34 116.366 32.5747 116.777 31.66C117.206 30.7267 117.421 29.728 117.421 28.664C117.421 27.4693 117.169 26.3587 116.665 25.332C116.161 24.2867 115.517 23.3533 114.733 22.532C113.949 21.7107 113.072 21.0107 112.101 20.432C111.149 19.8347 110.216 19.3773 109.301 19.06C110.01 19.06 110.729 19.2187 111.457 19.536C112.204 19.8533 112.913 20.2733 113.585 20.796C114.257 21.3 114.873 21.888 115.433 22.56C116.012 23.2133 116.497 23.8853 116.889 24.576L116.693 24.856C117.066 25.416 117.346 26.0227 117.533 26.676C117.738 27.3293 117.841 28.0013 117.841 28.692C117.841 30.0173 117.552 31.184 116.973 32.192C116.413 33.1813 115.694 34.012 114.817 34.684C113.958 35.3373 113.006 35.832 111.961 36.168C110.934 36.504 109.964 36.672 109.049 36.672C108.526 36.672 107.994 36.616 107.453 36.504C106.93 36.392 106.398 36.2053 105.857 35.944V36.112C106.38 36.4107 106.912 36.616 107.453 36.728C108.013 36.84 108.564 36.896 109.105 36.896C110.449 36.896 111.765 36.5973 113.053 36C114.36 35.4213 115.461 34.6 116.357 33.536C115.498 34.6373 114.425 35.496 113.137 36.112C111.868 36.728 110.542 37.036 109.161 37.036C107.742 37.036 106.594 36.756 105.717 36.196C104.84 35.6547 104.149 34.9827 103.645 34.18C103.16 33.3773 102.833 32.528 102.665 31.632C102.497 30.736 102.413 29.9333 102.413 29.224C102.413 28.272 102.534 27.3387 102.777 26.424C103.038 25.5093 103.43 24.6693 103.953 23.904C104.476 23.1387 105.148 22.4853 105.969 21.944C106.79 21.384 107.78 20.992 108.937 20.768L108.125 20.572C107.733 20.4787 107.453 20.3667 107.285 20.236C107.117 20.1053 107.033 19.9933 107.033 19.9C107.033 19.7507 107.192 19.592 107.509 19.424C107.845 19.2373 108.218 19.144 108.629 19.144ZM107.369 22.672C107.873 22.4853 108.358 22.392 108.825 22.392C109.292 22.392 109.646 22.4667 109.889 22.616C110.15 22.7467 110.281 22.8867 110.281 23.036C110.281 23.1293 110.169 23.232 109.945 23.344C109.74 23.456 109.469 23.6147 109.133 23.82C108.816 24.0067 108.461 24.2493 108.069 24.548C107.696 24.8467 107.341 25.2293 107.005 25.696C106.688 26.144 106.417 26.6947 106.193 27.348C105.988 28.0013 105.885 28.7667 105.885 29.644C105.885 30.932 106.174 31.9027 106.753 32.556C107.332 33.2093 108.134 33.536 109.161 33.536C109.814 33.536 110.477 33.424 111.149 33.2C111.84 32.976 112.456 32.6587 112.997 32.248C113.557 31.8373 114.005 31.3333 114.341 30.736C114.696 30.1387 114.873 29.4667 114.873 28.72C114.873 28.16 114.77 27.6 114.565 27.04C114.378 26.48 114.108 25.948 113.753 25.444C113.417 24.9213 113.006 24.436 112.521 23.988C112.054 23.54 111.541 23.1573 110.981 22.84C110.44 22.5413 109.992 22.3173 109.637 22.168C109.301 22 109.058 21.8413 108.909 21.692C108.76 21.7667 108.545 21.86 108.265 21.972C108.004 22.0653 107.649 22.2147 107.201 22.42L107.369 22.672ZM109.245 21.356C110.104 21.636 110.925 22.056 111.709 22.616C112.381 23.12 112.997 23.6707 113.557 24.268C113.016 23.6333 112.428 23.064 111.793 22.56C111.065 21.9627 110.253 21.496 109.357 21.16L109.245 21.356ZM114.677 30.904C114.397 31.5013 114.005 32.0333 113.501 32.5C113.837 32.276 114.117 32.0053 114.341 31.688C114.584 31.3707 114.78 31.0533 114.929 30.736C115.078 30.4187 115.19 30.1293 115.265 29.868C115.321 29.6253 115.368 29.4293 115.405 29.28C115.2 29.7653 114.957 30.3067 114.677 30.904ZM116.553 33.312C116.534 33.3493 116.506 33.3867 116.469 33.424C116.45 33.4427 116.432 33.452 116.413 33.452C116.394 33.452 116.441 33.3587 116.553 33.172C116.665 32.9667 116.796 32.7333 116.945 32.472C117.113 32.192 117.272 31.9027 117.421 31.604C117.552 31.38 117.645 31.184 117.701 31.016C117.44 31.8187 117.057 32.584 116.553 33.312ZM118.121 28.776C118.121 29.0747 118.102 29.3733 118.065 29.672C118.028 29.952 117.962 30.2133 117.869 30.456C118 29.9893 118.065 29.4667 118.065 28.888C118.065 28.4587 118.028 28.0387 117.953 27.628C117.897 27.2733 117.822 26.928 117.729 26.592C117.822 26.928 117.906 27.264 117.981 27.6C118.074 27.9733 118.121 28.3653 118.121 28.776ZM109.245 20.908L108.993 20.796C108.974 20.8333 108.946 20.8707 108.909 20.908C108.872 20.9453 108.853 20.9827 108.853 21.02C108.853 21.0573 108.872 21.1133 108.909 21.188C108.965 21.244 109.012 21.2907 109.049 21.328L109.245 20.908ZM113.725 24.464C113.669 24.3893 113.613 24.324 113.557 24.268C113.613 24.3427 113.669 24.408 113.725 24.464ZM117.701 31.016C117.72 30.9787 117.729 30.9413 117.729 30.904C117.729 30.9413 117.72 30.9787 117.701 31.016ZM117.757 30.848C117.738 30.8667 117.729 30.8853 117.729 30.904C117.729 30.8853 117.738 30.8667 117.757 30.848ZM117.942 38.828L117.914 39.5C117.896 39.6493 117.886 39.7893 117.886 39.92C117.886 41.1333 118.129 41.7773 118.614 41.852C118.446 41.796 118.306 41.6 118.194 41.264C118.082 40.928 118.026 40.4987 118.026 39.976C118.026 39.696 118.054 39.4253 118.11 39.164L118.754 41.292C118.736 41.292 118.764 41.2827 118.838 41.264C118.913 41.2453 118.978 41.208 119.034 41.152L119.286 41.432C120.462 40.7413 121.33 39.7987 121.89 38.604C122.45 37.4093 122.73 35.916 122.73 34.124C122.73 33.396 122.702 32.64 122.646 31.856L122.562 31.912C122.562 32.9573 122.525 33.9467 122.45 34.88C122.394 35.8133 122.254 36.672 122.03 37.456C121.825 38.24 121.517 38.9307 121.106 39.528C120.714 40.1067 120.201 40.5827 119.566 40.956C120.201 40.5453 120.714 40.0507 121.106 39.472C121.498 38.8747 121.797 38.2213 122.002 37.512C122.208 36.8213 122.338 36.0933 122.394 35.328C122.45 34.5627 122.478 33.8067 122.478 33.06C122.478 32.668 122.469 32.2853 122.45 31.912C122.45 31.52 122.45 31.1373 122.45 30.764C122.45 30.1667 122.46 29.588 122.478 29.028C122.516 28.4493 122.534 27.8427 122.534 27.208C122.534 26.592 122.525 25.976 122.506 25.36C122.506 24.744 122.506 24.1373 122.506 23.54C122.581 23.3533 122.656 23.0827 122.73 22.728C122.824 22.3547 122.917 21.9907 123.01 21.636C123.122 21.2627 123.225 20.9453 123.318 20.684C123.412 20.404 123.496 20.264 123.57 20.264C123.72 20.264 123.869 20.292 124.018 20.348C124.168 20.404 124.242 20.5533 124.242 20.796C124.242 20.908 124.233 21.0107 124.214 21.104C124.214 21.1973 124.214 21.3187 124.214 21.468H124.466C124.672 20.8707 124.886 20.4507 125.11 20.208C125.334 19.9467 125.549 19.816 125.754 19.816C126.053 19.816 126.202 20.1987 126.202 20.964V21.188C126.202 22.6627 126.146 24.268 126.034 26.004C125.941 27.74 125.894 29.448 125.894 31.128C125.894 31.408 125.894 31.6973 125.894 31.996C125.913 32.2947 125.922 32.5933 125.922 32.892C125.922 33.6947 125.866 34.6187 125.754 35.664C125.661 36.7093 125.437 37.7453 125.082 38.772C124.746 39.8173 124.252 40.788 123.598 41.684C122.945 42.58 122.068 43.28 120.966 43.784C120.649 43.9333 120.313 44.0733 119.958 44.204C119.622 44.3347 119.24 44.4 118.81 44.4C118.045 44.4 117.438 44.204 116.99 43.812C116.524 43.42 116.169 42.972 115.926 42.468C115.665 41.9827 115.497 41.4973 115.422 41.012C115.348 40.5453 115.31 40.228 115.31 40.06C115.31 39.7427 115.366 39.5373 115.478 39.444C115.572 39.3507 115.646 39.304 115.702 39.304L115.842 39.332C115.842 39.6307 115.861 39.9573 115.898 40.312C115.917 40.6853 115.973 41.0493 116.066 41.404C116.141 41.7773 116.262 42.1227 116.43 42.44C116.598 42.7573 116.813 43.0187 117.074 43.224C116.832 43.0187 116.636 42.7573 116.486 42.44C116.337 42.1227 116.225 41.7773 116.15 41.404C116.057 41.0493 116.001 40.6947 115.982 40.34C115.945 39.9853 115.926 39.6773 115.926 39.416H116.43V38.576C116.542 38.3147 116.654 38.1373 116.766 38.044C116.878 37.9507 116.99 37.904 117.102 37.904C117.308 37.904 117.466 37.988 117.578 38.156C117.69 38.3427 117.812 38.5667 117.942 38.828ZM127.574 13.544C127.22 13.544 126.874 13.6373 126.538 13.824C126.202 13.992 125.96 14.1507 125.81 14.3C126.034 14.188 126.277 14.0667 126.538 13.936C126.8 13.7867 127.145 13.712 127.574 13.712C127.574 13.9733 127.406 14.1693 127.07 14.3L126.818 14.048C126.762 14.1787 126.669 14.272 126.538 14.328C126.426 14.384 126.314 14.44 126.202 14.496C126.09 14.5333 125.988 14.5893 125.894 14.664C125.801 14.72 125.745 14.8227 125.726 14.972L125.81 15.056C126.053 14.7387 126.445 14.4867 126.986 14.3L125.39 15.728L125.054 15.812C124.98 15.756 124.84 15.672 124.634 15.56C124.429 15.448 124.317 15.336 124.298 15.224H124.27C124.214 15.224 124.084 15.2053 123.878 15.168C123.692 15.112 123.486 15.0467 123.262 14.972C123.057 14.8787 122.87 14.7667 122.702 14.636C122.534 14.5053 122.45 14.3653 122.45 14.216C122.45 14.0667 122.516 13.8893 122.646 13.684C122.777 13.46 122.936 13.2453 123.122 13.04C123.309 12.816 123.496 12.62 123.682 12.452C123.869 12.284 124.018 12.172 124.13 12.116C124.466 12.06 124.802 11.9387 125.138 11.752C125.493 11.5467 125.773 11.444 125.978 11.444C126.016 11.4813 126.053 11.5373 126.09 11.612C126.146 11.6867 126.193 11.7427 126.23 11.78C126.137 11.8733 126.034 11.948 125.922 12.004C125.81 12.0413 125.689 12.1067 125.558 12.2L126.314 11.948C126.389 12.0973 126.501 12.2093 126.65 12.284C126.912 12.4333 127.098 12.6573 127.21 12.956C127.341 13.236 127.462 13.432 127.574 13.544ZM120.714 41.012C121.05 40.7693 121.349 40.4613 121.61 40.088C121.872 39.7147 122.096 39.3133 122.282 38.884C122.469 38.4547 122.618 38.0067 122.73 37.54C122.861 37.0733 122.945 36.6067 122.982 36.14C122.777 37.484 122.376 38.632 121.778 39.584C121.2 40.5547 120.35 41.2827 119.23 41.768C119.492 41.7307 119.744 41.6373 119.986 41.488C120.229 41.3387 120.472 41.18 120.714 41.012ZM124.634 38.548C124.205 39.4813 123.654 40.3773 122.982 41.236C122.329 42.1133 121.517 42.7947 120.546 43.28C121.554 42.8133 122.394 42.1507 123.066 41.292C123.738 40.452 124.261 39.5373 124.634 38.548ZM125.138 12.396C125.288 12.3587 125.428 12.2933 125.558 12.2C125.428 12.2373 125.278 12.284 125.11 12.34C124.961 12.3773 124.812 12.4147 124.662 12.452C124.849 12.452 125.008 12.4333 125.138 12.396ZM139.919 28.664C139.415 28.664 139.033 28.6547 138.771 28.636C138.529 28.6173 138.305 28.608 138.099 28.608C137.539 28.608 137.045 28.636 136.615 28.692C136.186 28.748 135.822 28.86 135.523 29.028C135.225 29.196 135.001 29.4387 134.851 29.756C134.702 30.0733 134.627 30.4933 134.627 31.016C134.627 31.7813 134.711 32.3507 134.879 32.724C135.066 33.0787 135.318 33.34 135.635 33.508C135.971 33.6573 136.373 33.7507 136.839 33.788C137.306 33.8253 137.829 33.9093 138.407 34.04C138.743 34.0773 139.079 34.1053 139.415 34.124C139.751 34.124 140.087 34.124 140.423 34.124H142.439C141.506 34.068 140.573 34.04 139.639 34.04C138.725 34.0213 137.894 33.9373 137.147 33.788C136.419 33.6387 135.822 33.3773 135.355 33.004C134.907 32.6307 134.683 32.0613 134.683 31.296C134.683 30.68 134.758 30.2133 134.907 29.896C135.075 29.56 135.29 29.3173 135.551 29.168C135.831 29 136.158 28.9067 136.531 28.888C136.905 28.8507 137.306 28.832 137.735 28.832C138.258 28.832 138.79 28.86 139.331 28.916C138.902 29.0467 138.463 29.1493 138.015 29.224C137.586 29.28 137.185 29.3453 136.811 29.42C136.438 29.476 136.111 29.56 135.831 29.672C135.57 29.7653 135.393 29.9053 135.299 30.092V31.352L135.075 31.464C135.15 31.9307 135.215 32.2853 135.271 32.528C135.346 32.752 135.533 32.9293 135.831 33.06C136.13 33.172 136.606 33.2653 137.259 33.34C137.931 33.4147 138.902 33.536 140.171 33.704H142.187C142.542 33.704 142.747 33.6947 142.803 33.676C142.878 33.6387 142.925 33.62 142.943 33.62L142.691 32.108C142.654 31.7347 142.607 31.3987 142.551 31.1C142.495 30.8013 142.421 30.484 142.327 30.148C142.309 30.204 142.253 30.232 142.159 30.232C142.253 30.5493 142.327 30.8853 142.383 31.24C142.458 31.5947 142.514 31.9307 142.551 32.248C142.607 32.5653 142.645 32.836 142.663 33.06C142.701 33.284 142.738 33.4147 142.775 33.452L142.607 33.508C142.57 33.5267 142.514 33.536 142.439 33.536H142.271C142.141 33.536 141.991 33.5267 141.823 33.508C141.655 33.4707 141.441 33.452 141.179 33.452H140.255C139.527 33.452 138.855 33.4147 138.239 33.34C137.661 33.2653 137.157 33.172 136.727 33.06C137.157 33.1533 137.679 33.228 138.295 33.284C138.949 33.3587 139.555 33.396 140.115 33.396C140.358 33.396 140.61 33.396 140.871 33.396C141.151 33.3773 141.45 33.368 141.767 33.368H142.691C142.635 33.312 142.57 33.284 142.495 33.284H142.439C142.365 31.996 142.197 30.764 141.935 29.588C141.674 28.412 141.254 27.3853 140.675 26.508C140.097 25.612 139.341 24.9027 138.407 24.38C137.474 23.8387 136.307 23.568 134.907 23.568C134.515 23.568 134.123 23.596 133.731 23.652C133.339 23.708 132.938 23.7827 132.527 23.876C132.565 23.8387 132.583 23.8013 132.583 23.764C132.583 23.6707 132.546 23.5867 132.471 23.512C132.397 23.4187 132.359 23.3253 132.359 23.232C132.359 23.12 132.471 23.0173 132.695 22.924C132.938 22.812 133.442 22.7093 134.207 22.616C134.17 22.5787 134.142 22.5227 134.123 22.448C134.123 22.3733 134.123 22.3173 134.123 22.28C133.115 22.28 132.331 22.2613 131.771 22.224C131.211 22.168 130.931 22.028 130.931 21.804C130.931 21.7107 131.043 21.58 131.267 21.412C131.51 21.244 131.846 21.0853 132.275 20.936C132.705 20.768 133.218 20.628 133.815 20.516C134.431 20.3853 135.113 20.32 135.859 20.32C137.297 20.32 138.529 20.544 139.555 20.992C140.582 21.4213 141.441 22 142.131 22.728C142.841 23.4373 143.41 24.2493 143.839 25.164C144.287 26.0787 144.642 27.0027 144.903 27.936C145.183 28.8507 145.389 29.7467 145.519 30.624C145.65 31.4827 145.771 32.2293 145.883 32.864C145.883 32.976 145.883 33.088 145.883 33.2C145.902 33.312 145.911 33.4427 145.911 33.592C145.911 34.1333 145.809 34.6093 145.603 35.02C145.417 35.412 145.146 35.7387 144.791 36C144.455 36.28 144.054 36.4853 143.587 36.616C143.139 36.7653 142.654 36.84 142.131 36.84C141.721 36.84 141.189 36.8307 140.535 36.812C139.882 36.7933 139.257 36.7373 138.659 36.644C138.267 36.5507 137.838 36.476 137.371 36.42C136.905 36.3827 136.429 36.308 135.943 36.196C135.458 36.084 134.982 35.9253 134.515 35.72C134.067 35.5147 133.657 35.2067 133.283 34.796C132.929 34.3667 132.639 33.816 132.415 33.144C132.21 32.472 132.107 31.6227 132.107 30.596C132.107 29.6253 132.331 28.8507 132.779 28.272C133.227 27.6747 133.759 27.2173 134.375 26.9C135.01 26.564 135.654 26.3493 136.307 26.256C136.961 26.144 137.493 26.088 137.903 26.088C138.426 26.088 138.771 26.1253 138.939 26.2C139.107 26.2747 139.191 26.3493 139.191 26.424C139.191 26.48 139.182 26.5267 139.163 26.564C138.697 26.564 138.099 26.5827 137.371 26.62C136.643 26.6573 135.934 26.7787 135.243 26.984C134.571 27.1893 133.993 27.5067 133.507 27.936C133.022 28.3467 132.779 28.9347 132.779 29.7C132.947 29.0093 133.227 28.468 133.619 28.076C134.03 27.6653 134.497 27.3667 135.019 27.18C135.542 26.9747 136.074 26.8533 136.615 26.816C137.175 26.76 137.679 26.732 138.127 26.732H139.079C139.005 26.8067 138.967 26.8813 138.967 26.956C138.967 27.0307 139.005 27.096 139.079 27.152H140.171C140.47 27.208 140.685 27.3107 140.815 27.46C140.946 27.5907 141.011 27.712 141.011 27.824C141.011 27.992 140.927 28.1413 140.759 28.272C140.591 28.4027 140.311 28.5333 139.919 28.664ZM135.215 35.44C135.738 35.6453 136.27 35.804 136.811 35.916C137.371 36.028 137.922 36.1027 138.463 36.14C139.005 36.196 139.509 36.224 139.975 36.224C139.602 36.1867 139.229 36.1213 138.855 36.028C138.463 35.9347 138.118 35.8507 137.819 35.776C137.502 35.7013 137.185 35.6547 136.867 35.636C136.569 35.5987 136.251 35.552 135.915 35.496C135.598 35.44 135.271 35.356 134.935 35.244C134.599 35.1133 134.263 34.9267 133.927 34.684C134.282 35.0013 134.711 35.2533 135.215 35.44ZM135.495 32.5C135.477 32.4813 135.533 32.5373 135.663 32.668C135.775 32.78 135.925 32.864 136.111 32.92C136.018 32.8827 135.878 32.836 135.691 32.78C135.486 32.7053 135.383 32.5933 135.383 32.444L135.495 32.5ZM136.195 32.92C136.177 32.92 136.149 32.92 136.111 32.92C136.13 32.92 136.158 32.92 136.195 32.92ZM149.403 34.208C149.403 34.1147 149.431 34.0027 149.487 33.872C149.543 33.7413 149.571 33.6013 149.571 33.452C149.627 33.004 149.664 32.6867 149.683 32.5C149.701 32.2947 149.711 32.1173 149.711 31.968C149.711 31.184 149.683 30.344 149.627 29.448C149.589 28.5333 149.543 27.656 149.487 26.816C149.487 26.5547 149.477 26.2467 149.459 25.892C149.459 25.5373 149.44 25.2573 149.403 25.052C149.459 24.3987 149.505 23.7547 149.543 23.12C149.58 22.4853 149.599 21.8413 149.599 21.188V20.488C149.599 20.2453 149.589 20.0027 149.571 19.76C149.627 19.816 149.683 19.844 149.739 19.844C149.813 19.844 149.888 19.816 149.963 19.76C150.056 19.704 150.14 19.676 150.215 19.676C150.345 19.676 150.448 19.816 150.523 20.096C150.616 20.376 150.663 20.992 150.663 21.944H150.915C151.008 20.8987 151.148 20.068 151.335 19.452C151.54 18.836 151.745 18.528 151.951 18.528C152.044 18.528 152.193 18.7333 152.399 19.144C152.604 19.536 152.707 20.1613 152.707 21.02L153.015 20.516C153.22 20.2733 153.444 20.0213 153.687 19.76C153.948 19.4987 154.237 19.2653 154.555 19.06C154.872 18.8547 155.227 18.6867 155.619 18.556C156.011 18.4067 156.459 18.332 156.963 18.332C157.933 18.332 158.773 18.556 159.483 19.004C160.211 19.4333 160.817 20.0027 161.303 20.712C161.788 21.4027 162.18 22.196 162.479 23.092C162.796 23.9693 163.039 24.8653 163.207 25.78C163.375 26.676 163.487 27.544 163.543 28.384C163.599 29.224 163.627 29.9427 163.627 30.54C163.627 31.0813 163.589 31.408 163.515 31.52C163.459 31.6133 163.347 31.6693 163.179 31.688C163.141 30.2507 163.048 28.7853 162.899 27.292C162.749 25.7987 162.395 24.352 161.835 22.952C162.339 24.4267 162.656 25.8827 162.787 27.32C162.936 28.7387 163.011 30.1667 163.011 31.604C162.899 31.548 162.796 31.52 162.703 31.52C162.628 31.52 162.563 31.548 162.507 31.604C162.507 31.7533 162.516 31.912 162.535 32.08C162.553 32.2293 162.563 32.3787 162.563 32.528C162.581 32.6773 162.591 32.8173 162.591 32.948C162.479 33.3773 162.367 33.6853 162.255 33.872C162.143 34.0587 162.04 34.152 161.947 34.152C161.835 34.152 161.741 34.1053 161.667 34.012C161.592 33.9 161.517 33.7693 161.443 33.62C161.387 33.4707 161.321 33.312 161.247 33.144C161.191 32.9573 161.107 32.78 160.995 32.612C161.032 32.2947 161.06 32.0427 161.079 31.856C161.097 31.6507 161.107 31.4827 161.107 31.352C161.107 30.848 161.097 30.2413 161.079 29.532C161.06 28.8227 161.004 28.0853 160.911 27.32C160.836 26.536 160.705 25.7613 160.519 24.996C160.351 24.212 160.108 23.5213 159.791 22.924C159.492 22.308 159.109 21.8133 158.643 21.44C158.176 21.048 157.616 20.852 156.963 20.852C156.515 20.852 156.113 21.0013 155.759 21.3C155.423 21.5987 155.124 21.9813 154.863 22.448C154.62 22.9147 154.405 23.428 154.219 23.988C154.032 24.5293 153.883 25.052 153.771 25.556C153.939 25.0333 154.107 24.5013 154.275 23.96C154.461 23.4187 154.676 22.924 154.919 22.476C155.18 22.028 155.479 21.664 155.815 21.384C156.151 21.0853 156.543 20.936 156.991 20.936C157.569 20.936 158.064 21.0947 158.475 21.412C158.904 21.7293 159.259 22.14 159.539 22.644C159.837 23.148 160.071 23.7267 160.239 24.38C160.425 25.0147 160.565 25.668 160.659 26.34C160.752 26.9933 160.808 27.6373 160.827 28.272C160.864 28.888 160.883 29.42 160.883 29.868C160.883 30.2227 160.873 30.5773 160.855 30.932C160.855 31.2867 160.845 31.6507 160.827 32.024C160.659 31.3147 160.528 30.5773 160.435 29.812C160.36 29.028 160.276 28.2627 160.183 27.516C160.089 26.7507 159.968 26.0227 159.819 25.332C159.688 24.6227 159.492 23.9693 159.231 23.372L159.427 23.092C159.24 22.6627 159.025 22.336 158.783 22.112C158.559 21.8693 158.335 21.692 158.111 21.58C157.887 21.468 157.681 21.4027 157.495 21.384C157.308 21.3653 157.187 21.356 157.131 21.356C156.664 21.356 156.244 21.524 155.871 21.86C155.516 22.196 155.199 22.6533 154.919 23.232C154.657 23.792 154.424 24.4453 154.219 25.192C154.013 25.9387 153.836 26.7227 153.687 27.544C153.537 28.3653 153.407 29.196 153.295 30.036C153.183 30.8573 153.089 31.632 153.015 32.36H153.267C153.36 31.7253 153.453 31.0253 153.547 30.26C153.659 29.4947 153.771 28.72 153.883 27.936C154.013 27.1333 154.163 26.3587 154.331 25.612C154.499 24.8653 154.695 24.1933 154.919 23.596C155.161 22.9987 155.441 22.5133 155.759 22.14C156.057 21.7853 156.421 21.58 156.851 21.524C156.44 21.6173 156.095 21.8787 155.815 22.308C155.516 22.756 155.255 23.3067 155.031 23.96C154.807 24.6133 154.601 25.332 154.415 26.116C154.247 26.8813 154.088 27.6187 153.939 28.328L153.379 32.416C153.304 32.6773 153.248 32.9107 153.211 33.116L153.099 33.704C153.061 33.8907 153.024 34.096 152.987 34.32C152.949 34.5253 152.903 34.768 152.847 35.048L152.763 35.384H152.595L149.767 34.432C149.673 34.4133 149.599 34.3853 149.543 34.348C149.505 34.3107 149.459 34.264 149.403 34.208ZM154.275 19.844C153.901 20.1613 153.603 20.5067 153.379 20.88C153.173 21.2347 152.977 21.5987 152.791 21.972V22C153.052 21.4587 153.416 20.908 153.883 20.348C154.331 19.8253 154.928 19.4333 155.675 19.172C155.432 19.2467 155.199 19.3213 154.975 19.396C154.713 19.4893 154.48 19.6387 154.275 19.844ZM157.635 18.92C157.541 18.9013 157.411 18.892 157.243 18.892C157.84 19.0413 158.4 19.2093 158.923 19.396C159.445 19.564 159.94 19.9093 160.407 20.432C160.089 20.0027 159.669 19.6667 159.147 19.424C158.643 19.1813 158.139 19.0133 157.635 18.92ZM158.391 22.112C158.241 22 158.064 21.916 157.859 21.86C157.672 21.7853 157.439 21.692 157.159 21.58L157.131 21.524C157.448 21.5427 157.728 21.6173 157.971 21.748C158.213 21.86 158.447 22.0653 158.671 22.364L158.391 22.112ZM160.463 20.488C160.724 20.8053 160.967 21.1693 161.191 21.58C161.415 21.9907 161.611 22.3547 161.779 22.672C161.592 22.2427 161.415 21.8507 161.247 21.496C161.079 21.1413 160.817 20.8053 160.463 20.488Z" fill="#3B82F6"/>
</svg>
