<svg width="170" height="50" viewBox="0 0 170 50" fill="none" xmlns="http://www.w3.org/2000/svg">
<rect width="50" height="50" rx="12" fill="#3B82F6"/>
<path d="M9.228 33.396V32.528L9.592 32.304C9.536 31.9867 9.49867 31.6787 9.48 31.38C9.46133 31.0627 9.452 30.7453 9.452 30.428C9.452 30.0733 9.452 29.728 9.452 29.392C9.47067 29.0373 9.48 28.6733 9.48 28.3C9.48 27.908 9.46133 27.516 9.424 27.124C9.38667 26.732 9.32133 26.34 9.228 25.948H9.06C9.07867 26.9373 9.10667 27.908 9.144 28.86C9.2 29.812 9.228 30.7827 9.228 31.772C9.13467 30.3533 9.02267 28.9347 8.892 27.516C8.78 26.0973 8.724 24.66 8.724 23.204C8.724 22.7747 8.74267 22.3453 8.78 21.916C8.836 21.468 8.892 21.0293 8.948 20.6L7.1 21.076L7.128 20.992C7.09067 20.936 7.03467 20.8333 6.96 20.684C6.904 20.5347 6.876 20.4413 6.876 20.404C6.876 20.3107 6.96933 20.2173 7.156 20.124C7.36133 20.012 7.58533 19.9187 7.828 19.844C8.08933 19.7693 8.332 19.704 8.556 19.648C8.79867 19.592 8.96667 19.5547 9.06 19.536L8.976 19.2C8.82667 19.2373 8.51867 19.284 8.052 19.34C7.604 19.3773 7.14667 19.396 6.68 19.396C6.30667 19.396 5.98 19.368 5.7 19.312C5.42 19.256 5.28 19.1347 5.28 18.948C5.28 18.7427 5.46667 18.5373 5.84 18.332C6.21333 18.1267 6.68933 17.94 7.268 17.772C7.86533 17.5853 8.51867 17.4173 9.228 17.268C9.93733 17.1187 10.6187 16.988 11.272 16.876C11.9253 16.764 12.5133 16.68 13.036 16.624C13.5587 16.568 13.9227 16.54 14.128 16.54C15.08 16.54 15.9853 16.6613 16.844 16.904C17.7213 17.128 18.4867 17.492 19.14 17.996C19.7933 18.4813 20.3067 19.1067 20.68 19.872C21.072 20.6373 21.268 21.5427 21.268 22.588C21.268 23.0173 21.2027 23.4653 21.072 23.932C20.9413 24.38 20.736 24.8187 20.456 25.248C20.1947 25.6587 19.8493 26.032 19.42 26.368C19.0093 26.704 18.5147 26.9467 17.936 27.096C18.9067 27.2267 19.7373 27.4507 20.428 27.768C21.1373 28.0853 21.7067 28.468 22.136 28.916C22.584 29.364 22.9107 29.868 23.116 30.428C23.3213 30.988 23.424 31.5853 23.424 32.22C23.424 33.0413 23.256 33.7413 22.92 34.32C22.6027 34.8987 22.1733 35.384 21.632 35.776C21.0907 36.168 20.4747 36.4667 19.784 36.672C19.0933 36.896 18.3747 37.064 17.628 37.176C16.8813 37.288 16.144 37.3533 15.416 37.372C14.688 37.4093 14.0253 37.428 13.428 37.428C13.2787 37.428 12.9893 37.4187 12.56 37.4C12.1493 37.3813 11.72 37.344 11.272 37.288C10.824 37.232 10.4227 37.148 10.068 37.036C9.732 36.9427 9.564 36.812 9.564 36.644L9.592 36.504C10.376 36.6347 11.16 36.7373 11.944 36.812C12.728 36.9053 13.512 36.952 14.296 36.952C14.8933 36.952 15.4813 36.9147 16.06 36.84C16.6387 36.7653 17.2173 36.672 17.796 36.56C16.7507 36.7467 15.6587 36.84 14.52 36.84C13.7173 36.84 12.9147 36.8027 12.112 36.728C11.328 36.6533 10.544 36.5507 9.76 36.42L9.9 36.084L9.844 35.888C9.788 35.9067 9.704 35.916 9.592 35.916C9.40533 35.916 9.19067 35.8787 8.948 35.804C8.70533 35.7293 8.472 35.636 8.248 35.524C8.04267 35.412 7.86533 35.2813 7.716 35.132C7.56667 34.9827 7.492 34.8333 7.492 34.684C7.492 34.5907 7.56667 34.516 7.716 34.46C7.86533 34.404 8.03333 34.3667 8.22 34.348C8.42533 34.3107 8.62133 34.2827 8.808 34.264C8.99467 34.2453 9.12533 34.2267 9.2 34.208L9.228 33.396ZM12.028 20.124C12.0653 20.236 12.1027 20.4787 12.14 20.852C12.196 21.2067 12.2427 21.6267 12.28 22.112C12.336 22.5973 12.3827 23.12 12.42 23.68C12.4573 24.24 12.4853 24.7813 12.504 25.304C12.5413 25.808 12.5693 26.2653 12.588 26.676C12.6067 27.068 12.616 27.348 12.616 27.516C12.616 28.5053 12.5787 29.4947 12.504 30.484C12.4293 31.4547 12.392 32.4347 12.392 33.424C12.392 33.7973 12.5133 34.0307 12.756 34.124C13.0173 34.2173 13.2973 34.264 13.596 34.264C14.492 34.264 15.3787 34.236 16.256 34.18C17.1333 34.1053 17.992 33.9093 18.832 33.592L18.916 33.928C19.2893 33.7413 19.616 33.5173 19.896 33.256C20.1947 32.976 20.344 32.612 20.344 32.164C20.344 31.66 20.1853 31.2307 19.868 30.876C19.5507 30.5027 19.1587 30.204 18.692 29.98C18.244 29.756 17.7587 29.588 17.236 29.476C16.732 29.364 16.284 29.308 15.892 29.308C15.8547 29.308 15.78 29.336 15.668 29.392C15.556 29.4293 15.472 29.4573 15.416 29.476C15.6773 29.4947 16.004 29.5413 16.396 29.616C16.788 29.6907 17.1893 29.7933 17.6 29.924C18.0107 30.036 18.4027 30.1853 18.776 30.372C19.1493 30.5587 19.4573 30.764 19.7 30.988C19.3453 30.708 18.86 30.4747 18.244 30.288C17.6093 30.1013 16.956 29.952 16.284 29.84C15.6307 29.728 15.024 29.644 14.464 29.588C13.904 29.5133 13.5213 29.4573 13.316 29.42L13.176 26.312H13.232C13.7173 26.312 14.2213 26.228 14.744 26.06C15.2853 25.8733 15.78 25.6213 16.228 25.304C16.676 24.968 17.0493 24.576 17.348 24.128C17.6467 23.6613 17.796 23.1573 17.796 22.616C17.796 22.0933 17.684 21.664 17.46 21.328C17.236 20.992 16.9373 20.7307 16.564 20.544C16.2093 20.3387 15.808 20.208 15.36 20.152C14.912 20.0773 14.4733 20.04 14.044 20.04C13.708 20.04 13.372 20.0587 13.036 20.096C12.7 20.1147 12.364 20.124 12.028 20.124ZM12.42 34.852C12.7373 34.8893 13.036 34.9173 13.316 34.936C13.6147 34.9547 13.9227 34.964 14.24 34.964C14.5387 34.964 14.9027 34.9547 15.332 34.936C15.78 34.8987 16.2467 34.8427 16.732 34.768C17.236 34.6933 17.7307 34.5907 18.216 34.46C18.72 34.3293 19.168 34.1613 19.56 33.956C19.952 33.7507 20.2693 33.4987 20.512 33.2C20.7733 32.9013 20.904 32.5467 20.904 32.136C20.904 31.912 20.8667 31.6973 20.792 31.492C20.7173 31.2867 20.6147 31.0907 20.484 30.904C20.5773 31.0533 20.652 31.2213 20.708 31.408C20.7827 31.576 20.82 31.7533 20.82 31.94C20.82 32.5747 20.6053 33.0787 20.176 33.452C19.7467 33.8253 19.224 34.1147 18.608 34.32C18.0107 34.5067 17.3853 34.628 16.732 34.684C16.0787 34.74 15.5187 34.768 15.052 34.768C14.6227 34.768 14.184 34.7587 13.736 34.74C13.3067 34.7027 12.8773 34.6653 12.448 34.628L12.42 34.852ZM9.9 34.404C9.93733 33.7507 9.956 33.088 9.956 32.416V30.428C9.956 30.0547 9.94667 29.6907 9.928 29.336C9.90933 29 9.88133 28.664 9.844 28.328C9.844 28.8133 9.844 29.2987 9.844 29.784C9.86267 30.288 9.872 30.792 9.872 31.296C9.872 31.8187 9.86267 32.332 9.844 32.836C9.82533 33.34 9.77867 33.844 9.704 34.348L9.9 34.404ZM15.192 26.396C15.528 26.1907 15.8453 25.976 16.144 25.752C16.4613 25.528 16.7507 25.2667 17.012 24.968C16.9187 24.968 16.872 24.9307 16.872 24.856C16.2933 25.4907 15.5747 25.9853 14.716 26.34L15.192 26.396ZM16.648 29C17.208 29.0933 17.8053 29.2707 18.44 29.532C18.9813 29.756 19.4667 30.0173 19.896 30.316C19.4853 29.98 19 29.6907 18.44 29.448C17.824 29.1493 17.236 29 16.676 29H16.648ZM10.264 20.74L10.46 20.292L10.012 20.348C10.012 20.3853 10.012 20.4227 10.012 20.46C10.0307 20.4787 10.04 20.5067 10.04 20.544C10.04 20.5813 10.0307 20.6187 10.012 20.656C10.012 20.6747 10.012 20.7027 10.012 20.74H10.264ZM22.556 33.536C22.7427 33.0507 22.836 32.5933 22.836 32.164V31.856C22.836 31.744 22.8267 31.6413 22.808 31.548C22.808 32.1453 22.7427 32.7053 22.612 33.228C22.5 33.732 22.248 34.208 21.856 34.656C22.1547 34.3573 22.388 33.984 22.556 33.536ZM12.056 28.944C11.9813 29.2987 11.9347 29.6533 11.916 30.008C11.8973 30.3067 11.888 30.6147 11.888 30.932C11.9067 30.6333 11.9347 30.3347 11.972 30.036C12.0093 29.6813 12.0373 29.3173 12.056 28.944ZM21.8 34.712C21.4453 35.0853 21.0533 35.384 20.624 35.608C20.1947 35.832 19.7467 36.0373 19.28 36.224C19.7653 36.056 20.2227 35.86 20.652 35.636C21.0813 35.412 21.464 35.104 21.8 34.712ZM20.932 28.44C21.1 28.5893 21.2587 28.7387 21.408 28.888L21.8 29.28C21.688 29.112 21.5667 28.9627 21.436 28.832C21.3053 28.6827 21.1373 28.552 20.932 28.44ZM11.888 34.096V33.256C11.8693 33.4053 11.8507 33.5453 11.832 33.676C11.832 33.8067 11.832 33.9467 11.832 34.096H11.888ZM19.756 31.044C20.0547 31.2867 20.204 31.576 20.204 31.912V31.968C20.148 31.632 19.9987 31.324 19.756 31.044ZM19.672 33.116C19.504 33.284 19.2987 33.4147 19.056 33.508L19.672 33.116ZM11.776 34.768H11.888V34.572H11.776V34.768ZM20.008 32.64C19.9893 32.64 19.98 32.6213 19.98 32.584C19.98 32.5467 19.9893 32.5 20.008 32.444C20.0453 32.3693 20.0827 32.3133 20.12 32.276L20.008 32.64ZM20.204 32.136C20.204 32.1547 20.1853 32.1827 20.148 32.22L20.204 32.108V32.136ZM42.3093 16.624C42.4587 16.624 42.5427 16.7173 42.5613 16.904C42.5987 17.072 42.6173 17.24 42.6173 17.408L42.5893 17.604C42.5707 17.716 42.5427 17.8653 42.5053 18.052C42.468 18.22 42.4213 18.4067 42.3653 18.612C42.328 18.8173 42.272 19.004 42.1973 19.172C41.936 19.9933 41.7213 20.8053 41.5533 21.608C41.404 22.4107 41.2827 23.2227 41.1893 24.044C41.096 24.8467 41.0213 25.6587 40.9653 26.48C40.9093 27.3013 40.8533 28.132 40.7973 28.972C40.872 28.2067 40.9373 27.404 40.9933 26.564C41.068 25.724 41.1613 24.884 41.2733 24.044C41.3853 23.1853 41.5253 22.3547 41.6933 21.552C41.88 20.7307 42.132 19.9653 42.4493 19.256C42.1693 21.048 41.936 22.8307 41.7493 24.604C41.5813 26.3773 41.4413 28.1693 41.3293 29.98L40.9933 30.148C40.9933 31.2867 40.8813 32.3787 40.6573 33.424C40.4333 34.4507 40.1813 35.5147 39.9013 36.616C39.808 36.616 39.696 36.616 39.5653 36.616C39.4533 36.6347 39.3413 36.644 39.2293 36.644C39.136 36.644 39.0053 36.616 38.8373 36.56C38.6693 36.504 38.492 36.4293 38.3053 36.336C38.1187 36.2613 37.9227 36.168 37.7173 36.056C37.5307 35.9627 37.372 35.8693 37.2413 35.776C36.4387 35.2533 35.72 34.6093 35.0853 33.844C34.4507 33.06 33.8813 32.2013 33.3773 31.268C32.8733 30.3347 32.4253 29.3547 32.0333 28.328C31.6413 27.2827 31.268 26.2373 30.9133 25.192C30.5773 24.1467 30.2507 23.1293 29.9333 22.14C29.616 21.132 29.2987 20.208 28.9813 19.368L28.8133 19.508C29.1307 20.4413 29.4387 21.4587 29.7373 22.56C30.0547 23.6427 30.3813 24.7533 30.7173 25.892C31.072 27.012 31.464 28.1227 31.8933 29.224C32.3413 30.3253 32.8547 31.352 33.4333 32.304C34.0307 33.256 34.7213 34.1053 35.5053 34.852C36.2893 35.58 37.204 36.1493 38.2493 36.56C37.3533 36.3173 36.5507 35.9067 35.8413 35.328C35.1507 34.7307 34.516 34.0307 33.9373 33.228C33.3773 32.4253 32.8733 31.5573 32.4253 30.624C31.996 29.672 31.604 28.7107 31.2493 27.74C30.8947 26.7693 30.5773 25.8173 30.2973 24.884C30.0173 23.9507 29.756 23.1013 29.5133 22.336C29.5133 23.12 29.5507 23.8853 29.6253 24.632C29.7187 25.3787 29.7653 26.1347 29.7653 26.9C29.7653 28.188 29.8027 29.4853 29.8773 30.792C29.952 32.08 30.0267 33.368 30.1013 34.656L29.4853 34.768C29.336 34.768 29.224 34.6467 29.1493 34.404C29.0747 34.1427 29.0187 33.8533 28.9813 33.536C28.944 33.2187 28.916 32.92 28.8973 32.64C28.8973 32.3413 28.8973 32.1547 28.8973 32.08H28.5613C28.5613 32.2293 28.552 32.528 28.5333 32.976C28.5333 33.4053 28.5053 33.8533 28.4493 34.32C28.3933 34.7867 28.3 35.2067 28.1693 35.58C28.0573 35.9533 27.8893 36.14 27.6653 36.14C27.516 36.14 27.376 35.8973 27.2453 35.412C27.1147 34.908 26.984 34.2547 26.8533 33.452C26.7227 32.6307 26.6013 31.7067 26.4893 30.68C26.3773 29.6347 26.284 28.58 26.2093 27.516C26.1347 26.452 26.0693 25.416 26.0133 24.408C25.976 23.4 25.9573 22.5133 25.9573 21.748C25.9573 20.7587 26.0227 19.7787 26.1533 18.808C26.3027 17.8373 26.536 16.876 26.8533 15.924L29.9333 15.336C30.0267 15.4667 30.1107 15.588 30.1853 15.7C30.26 15.7933 30.344 15.896 30.4373 16.008C30.9787 16.792 31.4453 17.6507 31.8373 18.584C32.2293 19.4987 32.584 20.46 32.9013 21.468C33.2187 22.4573 33.5173 23.4653 33.7973 24.492C34.096 25.5 34.4227 26.4893 34.7773 27.46C35.132 28.412 35.5427 29.3173 36.0093 30.176C36.476 31.0347 37.0453 31.8 37.7173 32.472C37.792 31.9307 37.8573 31.212 37.9133 30.316C37.988 29.42 38.0627 28.4587 38.1373 27.432C38.2307 26.4053 38.324 25.3787 38.4173 24.352C38.5107 23.3067 38.6227 22.364 38.7533 21.524C38.9027 20.6653 39.0707 19.9747 39.2573 19.452C39.4627 18.9107 39.696 18.64 39.9573 18.64L40.1253 18.752C39.7333 19.9093 39.4627 21.076 39.3133 22.252C39.1827 23.428 39.08 24.6133 39.0053 25.808C38.9493 27.0027 38.8747 28.1973 38.7813 29.392C38.7067 30.568 38.5293 31.7347 38.2493 32.892L38.4173 32.976C38.436 32.808 38.4547 32.64 38.4733 32.472C38.492 32.2853 38.52 32.108 38.5573 31.94C38.7067 30.8573 38.8093 29.7747 38.8653 28.692C38.94 27.5907 39.0147 26.4893 39.0893 25.388C39.1827 24.2867 39.304 23.1947 39.4533 22.112C39.6213 21.0293 39.8733 19.9653 40.2093 18.92L40.4893 19.116C40.6013 19.0413 40.704 18.8733 40.7973 18.612C40.8907 18.332 41.0027 18.052 41.1333 17.772C41.264 17.4733 41.4227 17.212 41.6093 16.988C41.796 16.7453 42.0293 16.624 42.3093 16.624ZM39.4533 36.392C39.6587 35.72 39.8453 35.048 40.0133 34.376C40.1813 33.704 40.312 33.0133 40.4053 32.304C40.2933 32.976 40.144 33.6387 39.9573 34.292C39.7893 34.9267 39.6213 35.5707 39.4533 36.224C38.3333 35.832 37.4187 35.4027 36.7093 34.936C36.0187 34.4693 35.4307 33.9373 34.9453 33.34C34.4787 32.7427 34.0587 32.0707 33.6853 31.324C33.3867 30.7453 33.06 30.1013 32.7053 29.392C32.9293 29.8587 33.1253 30.288 33.2933 30.68C33.5547 31.2213 33.8067 31.7253 34.0493 32.192C34.3107 32.64 34.5813 33.0507 34.8613 33.424C35.1413 33.7787 35.4867 34.124 35.8973 34.46C36.308 34.7773 36.7933 35.0947 37.3533 35.412C37.932 35.7107 38.632 36.0373 39.4533 36.392ZM38.1653 33.592C37.9787 33.4613 37.736 33.2093 37.4373 32.836C37.1573 32.4627 36.868 32.08 36.5693 31.688C36.2893 31.2773 36.0373 30.9133 35.8133 30.596C35.5893 30.2787 35.4587 30.1107 35.4213 30.092C35.72 30.7827 36.1027 31.4173 36.5693 31.996C37.0547 32.556 37.5587 33.088 38.0813 33.592H38.1653Z" fill="white"/>
<path d="M82.968 16.4C83.416 16.4 83.78 16.5493 84.06 16.848C84.34 17.1467 84.48 17.52 84.48 17.968V34.292C84.48 34.7773 84.312 35.188 83.976 35.524C83.6587 35.8413 83.2573 36 82.772 36C82.5293 36 82.2773 35.9627 82.016 35.888C81.7733 35.7947 81.5867 35.6733 81.456 35.524L70.452 21.552L71.18 21.104V34.432C71.18 34.88 71.0307 35.2533 70.732 35.552C70.452 35.8507 70.0787 36 69.612 36C69.164 36 68.8 35.8507 68.52 35.552C68.24 35.2533 68.1 34.88 68.1 34.432V18.108C68.1 17.6227 68.2587 17.2213 68.576 16.904C68.912 16.568 69.3227 16.4 69.808 16.4C70.0693 16.4 70.34 16.456 70.62 16.568C70.9 16.6613 71.1053 16.8107 71.236 17.016L81.904 30.624L81.428 30.96V17.968C81.428 17.52 81.568 17.1467 81.848 16.848C82.128 16.5493 82.5013 16.4 82.968 16.4ZM97.4538 16.4C99.2458 16.4 100.581 16.82 101.458 17.66C102.335 18.5 102.774 19.7413 102.774 21.384C102.774 22.2613 102.559 23.036 102.13 23.708C101.701 24.3613 101.066 24.8747 100.226 25.248C99.3858 25.6027 98.3498 25.78 97.1178 25.78L97.2298 24.52C97.8085 24.52 98.4712 24.604 99.2178 24.772C99.9645 24.9213 100.683 25.2013 101.374 25.612C102.083 26.004 102.662 26.564 103.11 27.292C103.577 28.0013 103.81 28.916 103.81 30.036C103.81 31.268 103.605 32.276 103.194 33.06C102.802 33.844 102.279 34.4507 101.626 34.88C100.973 35.3093 100.273 35.608 99.5258 35.776C98.7792 35.9253 98.0605 36 97.3698 36H90.3978C89.9125 36 89.5018 35.8413 89.1658 35.524C88.8485 35.188 88.6898 34.7773 88.6898 34.292V18.108C88.6898 17.6227 88.8485 17.2213 89.1658 16.904C89.5018 16.568 89.9125 16.4 90.3978 16.4H97.4538ZM96.9498 19.704H91.9658L92.3298 19.256V24.324L91.9938 24.072H97.0338C97.5752 24.072 98.0605 23.8947 98.4898 23.54C98.9192 23.1853 99.1338 22.672 99.1338 22C99.1338 21.1973 98.9285 20.6187 98.5178 20.264C98.1258 19.8907 97.6032 19.704 96.9498 19.704ZM97.1738 27.376H92.0778L92.3298 27.152V33.06L92.0498 32.78H97.3698C98.2285 32.78 98.9098 32.556 99.4138 32.108C99.9178 31.6413 100.17 30.9507 100.17 30.036C100.17 29.196 100.002 28.5893 99.6658 28.216C99.3298 27.8427 98.9285 27.6093 98.4618 27.516C97.9952 27.4227 97.5658 27.376 97.1738 27.376ZM121.262 28.524C121.262 30.0547 120.917 31.408 120.226 32.584C119.554 33.7413 118.639 34.6467 117.482 35.3C116.343 35.9533 115.065 36.28 113.646 36.28C112.227 36.28 110.939 35.9533 109.782 35.3C108.643 34.6467 107.729 33.7413 107.038 32.584C106.366 31.408 106.03 30.0547 106.03 28.524C106.03 26.9933 106.366 25.6493 107.038 24.492C107.729 23.316 108.643 22.4013 109.782 21.748C110.939 21.076 112.227 20.74 113.646 20.74C115.065 20.74 116.343 21.076 117.482 21.748C118.639 22.4013 119.554 23.316 120.226 24.492C120.917 25.6493 121.262 26.9933 121.262 28.524ZM117.902 28.524C117.902 27.572 117.706 26.7507 117.314 26.06C116.941 25.3507 116.427 24.8 115.774 24.408C115.139 24.016 114.43 23.82 113.646 23.82C112.862 23.82 112.143 24.016 111.49 24.408C110.855 24.8 110.342 25.3507 109.95 26.06C109.577 26.7507 109.39 27.572 109.39 28.524C109.39 29.4573 109.577 30.2787 109.95 30.988C110.342 31.6787 110.855 32.22 111.49 32.612C112.143 33.004 112.862 33.2 113.646 33.2C114.43 33.2 115.139 33.004 115.774 32.612C116.427 32.22 116.941 31.6787 117.314 30.988C117.706 30.2787 117.902 29.4573 117.902 28.524ZM127.983 36.28C127.983 37.344 127.777 38.2587 127.367 39.024C126.956 39.808 126.405 40.4147 125.715 40.844C125.024 41.2733 124.249 41.488 123.391 41.488C122.924 41.488 122.551 41.3293 122.271 41.012C121.972 40.7133 121.823 40.3493 121.823 39.92V39.612C121.823 39.2013 121.963 38.8747 122.243 38.632C122.504 38.3893 122.84 38.2027 123.251 38.072C123.699 37.9227 124.016 37.708 124.203 37.428C124.389 37.1667 124.501 36.8493 124.539 36.476C124.595 36.1027 124.623 35.7107 124.623 35.3V22.728C124.623 22.2427 124.781 21.8413 125.099 21.524C125.416 21.188 125.817 21.02 126.303 21.02C126.788 21.02 127.189 21.188 127.507 21.524C127.824 21.8413 127.983 22.2427 127.983 22.728V36.28ZM126.247 19.2C125.612 19.2 125.164 19.0973 124.903 18.892C124.641 18.6867 124.511 18.3227 124.511 17.8V17.268C124.511 16.7267 124.651 16.3627 124.931 16.176C125.229 15.9707 125.677 15.868 126.275 15.868C126.928 15.868 127.385 15.9707 127.647 16.176C127.908 16.3813 128.039 16.7453 128.039 17.268V17.8C128.039 18.3413 127.899 18.7147 127.619 18.92C127.339 19.1067 126.881 19.2 126.247 19.2ZM144.178 20.74C144.663 20.74 145.064 20.8987 145.382 21.216C145.699 21.5333 145.858 21.944 145.858 22.448V34.292C145.858 34.7773 145.699 35.188 145.382 35.524C145.064 35.8413 144.663 36 144.178 36C143.692 36 143.291 35.8413 142.974 35.524C142.656 35.188 142.498 34.7773 142.498 34.292V32.92L143.114 33.172C143.114 33.4147 142.983 33.7133 142.722 34.068C142.46 34.404 142.106 34.74 141.658 35.076C141.21 35.412 140.678 35.7013 140.062 35.944C139.464 36.168 138.811 36.28 138.102 36.28C136.814 36.28 135.647 35.9533 134.602 35.3C133.556 34.628 132.726 33.7133 132.11 32.556C131.512 31.38 131.214 30.036 131.214 28.524C131.214 26.9933 131.512 25.6493 132.11 24.492C132.726 23.316 133.547 22.4013 134.574 21.748C135.6 21.076 136.739 20.74 137.99 20.74C138.792 20.74 139.53 20.8613 140.202 21.104C140.874 21.3467 141.452 21.6547 141.938 22.028C142.442 22.4013 142.824 22.784 143.086 23.176C143.366 23.5493 143.506 23.8667 143.506 24.128L142.498 24.492V22.448C142.498 21.9627 142.656 21.5613 142.974 21.244C143.291 20.908 143.692 20.74 144.178 20.74ZM138.522 33.2C139.343 33.2 140.062 32.9947 140.678 32.584C141.294 32.1733 141.77 31.6133 142.106 30.904C142.46 30.1947 142.638 29.4013 142.638 28.524C142.638 27.628 142.46 26.8253 142.106 26.116C141.77 25.4067 141.294 24.8467 140.678 24.436C140.062 24.0253 139.343 23.82 138.522 23.82C137.719 23.82 137.01 24.0253 136.394 24.436C135.778 24.8467 135.292 25.4067 134.938 26.116C134.602 26.8253 134.434 27.628 134.434 28.524C134.434 29.4013 134.602 30.1947 134.938 30.904C135.292 31.6133 135.778 32.1733 136.394 32.584C137.01 32.9947 137.719 33.2 138.522 33.2ZM157.504 20.74C158.885 20.74 159.93 21.0293 160.64 21.608C161.368 22.1867 161.862 22.9613 162.124 23.932C162.404 24.884 162.544 25.948 162.544 27.124V34.292C162.544 34.7773 162.385 35.188 162.068 35.524C161.75 35.8413 161.349 36 160.864 36C160.378 36 159.977 35.8413 159.66 35.524C159.342 35.188 159.184 34.7773 159.184 34.292V27.124C159.184 26.508 159.1 25.9573 158.932 25.472C158.782 24.968 158.502 24.5667 158.092 24.268C157.681 23.9693 157.093 23.82 156.328 23.82C155.581 23.82 154.946 23.9693 154.424 24.268C153.92 24.5667 153.528 24.968 153.248 25.472C152.986 25.9573 152.856 26.508 152.856 27.124V34.292C152.856 34.7773 152.697 35.188 152.38 35.524C152.062 35.8413 151.661 36 151.176 36C150.69 36 150.289 35.8413 149.972 35.524C149.654 35.188 149.496 34.7773 149.496 34.292V22.728C149.496 22.2427 149.654 21.8413 149.972 21.524C150.289 21.188 150.69 21.02 151.176 21.02C151.661 21.02 152.062 21.188 152.38 21.524C152.697 21.8413 152.856 22.2427 152.856 22.728V23.932L152.436 23.848C152.604 23.5307 152.846 23.1947 153.164 22.84C153.481 22.4667 153.854 22.1213 154.284 21.804C154.713 21.4867 155.198 21.2347 155.74 21.048C156.281 20.8427 156.869 20.74 157.504 20.74Z" fill="#3B82F6"/>
</svg>
