<svg width="170" height="50" viewBox="0 0 170 50" fill="none" xmlns="http://www.w3.org/2000/svg">
<rect width="50" height="50" rx="12" fill="#3B82F6"/>
<path d="M10.536 36V16.064H16.2C17.352 16.064 18.344 16.1813 19.176 16.416C20.008 16.6507 20.6907 16.9813 21.224 17.408C21.7787 17.8347 22.184 18.3467 22.44 18.944C22.696 19.5413 22.824 20.192 22.824 20.896C22.824 21.5147 22.7067 22.1227 22.472 22.72C22.2587 23.3173 21.928 23.84 21.48 24.288C21.0533 24.736 20.52 25.0773 19.88 25.312C20.4347 25.504 20.936 25.7707 21.384 26.112C21.8533 26.4533 22.248 26.8587 22.568 27.328C22.9093 27.776 23.1653 28.2667 23.336 28.8C23.528 29.312 23.624 29.8453 23.624 30.4C23.624 31.232 23.4747 32 23.176 32.704C22.8773 33.3867 22.4187 33.9733 21.8 34.464C21.2027 34.9547 20.4347 35.3387 19.496 35.616C18.5573 35.872 17.448 36 16.168 36H10.536ZM12.744 34.048H16.552C17.4907 34.048 18.312 33.9307 19.016 33.696C19.72 33.44 20.264 33.0347 20.648 32.48C21.0533 31.9253 21.256 31.1893 21.256 30.272C21.256 29.4827 21.0853 28.7893 20.744 28.192C20.4027 27.5733 19.848 27.0933 19.08 26.752C18.3333 26.3893 17.3093 26.208 16.008 26.208H12.744V34.048ZM12.744 24.32H15.88C17.0533 24.32 17.9813 24.1813 18.664 23.904C19.3467 23.6267 19.8373 23.2533 20.136 22.784C20.4347 22.2933 20.584 21.7493 20.584 21.152C20.584 20.704 20.4987 20.288 20.328 19.904C20.1787 19.52 19.9333 19.1893 19.592 18.912C19.2507 18.6133 18.8027 18.3787 18.248 18.208C17.6933 18.0373 17.0213 17.952 16.232 17.952H12.744V24.32ZM26.6 16.064H28.776L37.16 30.848V16.064H39.272H39.592V16.288C39.464 16.416 39.3787 16.5547 39.336 16.704C39.3147 16.8533 39.304 17.1093 39.304 17.472V36H37.544L28.744 20.32V36H26.6V16.064Z" fill="white"/>
<path d="M83.968 16.4C84.416 16.4 84.78 16.5493 85.06 16.848C85.34 17.1467 85.48 17.52 85.48 17.968V34.292C85.48 34.7773 85.312 35.188 84.976 35.524C84.6587 35.8413 84.2573 36 83.772 36C83.5293 36 83.2773 35.9627 83.016 35.888C82.7733 35.7947 82.5867 35.6733 82.456 35.524L71.452 21.552L72.18 21.104V34.432C72.18 34.88 72.0307 35.2533 71.732 35.552C71.452 35.8507 71.0787 36 70.612 36C70.164 36 69.8 35.8507 69.52 35.552C69.24 35.2533 69.1 34.88 69.1 34.432V18.108C69.1 17.6227 69.2587 17.2213 69.576 16.904C69.912 16.568 70.3227 16.4 70.808 16.4C71.0693 16.4 71.34 16.456 71.62 16.568C71.9 16.6613 72.1053 16.8107 72.236 17.016L82.904 30.624L82.428 30.96V17.968C82.428 17.52 82.568 17.1467 82.848 16.848C83.128 16.5493 83.5013 16.4 83.968 16.4ZM98.4538 16.4C100.246 16.4 101.581 16.82 102.458 17.66C103.335 18.5 103.774 19.7413 103.774 21.384C103.774 22.2613 103.559 23.036 103.13 23.708C102.701 24.3613 102.066 24.8747 101.226 25.248C100.386 25.6027 99.3498 25.78 98.1178 25.78L98.2298 24.52C98.8085 24.52 99.4712 24.604 100.218 24.772C100.965 24.9213 101.683 25.2013 102.374 25.612C103.083 26.004 103.662 26.564 104.11 27.292C104.577 28.0013 104.81 28.916 104.81 30.036C104.81 31.268 104.605 32.276 104.194 33.06C103.802 33.844 103.279 34.4507 102.626 34.88C101.973 35.3093 101.273 35.608 100.526 35.776C99.7792 35.9253 99.0605 36 98.3698 36H91.3978C90.9125 36 90.5018 35.8413 90.1658 35.524C89.8485 35.188 89.6898 34.7773 89.6898 34.292V18.108C89.6898 17.6227 89.8485 17.2213 90.1658 16.904C90.5018 16.568 90.9125 16.4 91.3978 16.4H98.4538ZM97.9498 19.704H92.9658L93.3298 19.256V24.324L92.9938 24.072H98.0338C98.5752 24.072 99.0605 23.8947 99.4898 23.54C99.9192 23.1853 100.134 22.672 100.134 22C100.134 21.1973 99.9285 20.6187 99.5178 20.264C99.1258 19.8907 98.6032 19.704 97.9498 19.704ZM98.1738 27.376H93.0778L93.3298 27.152V33.06L93.0498 32.78H98.3698C99.2285 32.78 99.9098 32.556 100.414 32.108C100.918 31.6413 101.17 30.9507 101.17 30.036C101.17 29.196 101.002 28.5893 100.666 28.216C100.33 27.8427 99.9285 27.6093 99.4618 27.516C98.9952 27.4227 98.5658 27.376 98.1738 27.376ZM122.262 28.524C122.262 30.0547 121.917 31.408 121.226 32.584C120.554 33.7413 119.639 34.6467 118.482 35.3C117.343 35.9533 116.065 36.28 114.646 36.28C113.227 36.28 111.939 35.9533 110.782 35.3C109.643 34.6467 108.729 33.7413 108.038 32.584C107.366 31.408 107.03 30.0547 107.03 28.524C107.03 26.9933 107.366 25.6493 108.038 24.492C108.729 23.316 109.643 22.4013 110.782 21.748C111.939 21.076 113.227 20.74 114.646 20.74C116.065 20.74 117.343 21.076 118.482 21.748C119.639 22.4013 120.554 23.316 121.226 24.492C121.917 25.6493 122.262 26.9933 122.262 28.524ZM118.902 28.524C118.902 27.572 118.706 26.7507 118.314 26.06C117.941 25.3507 117.427 24.8 116.774 24.408C116.139 24.016 115.43 23.82 114.646 23.82C113.862 23.82 113.143 24.016 112.49 24.408C111.855 24.8 111.342 25.3507 110.95 26.06C110.577 26.7507 110.39 27.572 110.39 28.524C110.39 29.4573 110.577 30.2787 110.95 30.988C111.342 31.6787 111.855 32.22 112.49 32.612C113.143 33.004 113.862 33.2 114.646 33.2C115.43 33.2 116.139 33.004 116.774 32.612C117.427 32.22 117.941 31.6787 118.314 30.988C118.706 30.2787 118.902 29.4573 118.902 28.524ZM128.983 36.28C128.983 37.344 128.777 38.2587 128.367 39.024C127.956 39.808 127.405 40.4147 126.715 40.844C126.024 41.2733 125.249 41.488 124.391 41.488C123.924 41.488 123.551 41.3293 123.271 41.012C122.972 40.7133 122.823 40.3493 122.823 39.92V39.612C122.823 39.2013 122.963 38.8747 123.243 38.632C123.504 38.3893 123.84 38.2027 124.251 38.072C124.699 37.9227 125.016 37.708 125.203 37.428C125.389 37.1667 125.501 36.8493 125.539 36.476C125.595 36.1027 125.623 35.7107 125.623 35.3V22.728C125.623 22.2427 125.781 21.8413 126.099 21.524C126.416 21.188 126.817 21.02 127.303 21.02C127.788 21.02 128.189 21.188 128.507 21.524C128.824 21.8413 128.983 22.2427 128.983 22.728V36.28ZM127.247 19.2C126.612 19.2 126.164 19.0973 125.903 18.892C125.641 18.6867 125.511 18.3227 125.511 17.8V17.268C125.511 16.7267 125.651 16.3627 125.931 16.176C126.229 15.9707 126.677 15.868 127.275 15.868C127.928 15.868 128.385 15.9707 128.647 16.176C128.908 16.3813 129.039 16.7453 129.039 17.268V17.8C129.039 18.3413 128.899 18.7147 128.619 18.92C128.339 19.1067 127.881 19.2 127.247 19.2ZM145.178 20.74C145.663 20.74 146.064 20.8987 146.382 21.216C146.699 21.5333 146.858 21.944 146.858 22.448V34.292C146.858 34.7773 146.699 35.188 146.382 35.524C146.064 35.8413 145.663 36 145.178 36C144.692 36 144.291 35.8413 143.974 35.524C143.656 35.188 143.498 34.7773 143.498 34.292V32.92L144.114 33.172C144.114 33.4147 143.983 33.7133 143.722 34.068C143.46 34.404 143.106 34.74 142.658 35.076C142.21 35.412 141.678 35.7013 141.062 35.944C140.464 36.168 139.811 36.28 139.102 36.28C137.814 36.28 136.647 35.9533 135.602 35.3C134.556 34.628 133.726 33.7133 133.11 32.556C132.512 31.38 132.214 30.036 132.214 28.524C132.214 26.9933 132.512 25.6493 133.11 24.492C133.726 23.316 134.547 22.4013 135.574 21.748C136.6 21.076 137.739 20.74 138.99 20.74C139.792 20.74 140.53 20.8613 141.202 21.104C141.874 21.3467 142.452 21.6547 142.938 22.028C143.442 22.4013 143.824 22.784 144.086 23.176C144.366 23.5493 144.506 23.8667 144.506 24.128L143.498 24.492V22.448C143.498 21.9627 143.656 21.5613 143.974 21.244C144.291 20.908 144.692 20.74 145.178 20.74ZM139.522 33.2C140.343 33.2 141.062 32.9947 141.678 32.584C142.294 32.1733 142.77 31.6133 143.106 30.904C143.46 30.1947 143.638 29.4013 143.638 28.524C143.638 27.628 143.46 26.8253 143.106 26.116C142.77 25.4067 142.294 24.8467 141.678 24.436C141.062 24.0253 140.343 23.82 139.522 23.82C138.719 23.82 138.01 24.0253 137.394 24.436C136.778 24.8467 136.292 25.4067 135.938 26.116C135.602 26.8253 135.434 27.628 135.434 28.524C135.434 29.4013 135.602 30.1947 135.938 30.904C136.292 31.6133 136.778 32.1733 137.394 32.584C138.01 32.9947 138.719 33.2 139.522 33.2ZM158.504 20.74C159.885 20.74 160.93 21.0293 161.64 21.608C162.368 22.1867 162.862 22.9613 163.124 23.932C163.404 24.884 163.544 25.948 163.544 27.124V34.292C163.544 34.7773 163.385 35.188 163.068 35.524C162.75 35.8413 162.349 36 161.864 36C161.378 36 160.977 35.8413 160.66 35.524C160.342 35.188 160.184 34.7773 160.184 34.292V27.124C160.184 26.508 160.1 25.9573 159.932 25.472C159.782 24.968 159.502 24.5667 159.092 24.268C158.681 23.9693 158.093 23.82 157.328 23.82C156.581 23.82 155.946 23.9693 155.424 24.268C154.92 24.5667 154.528 24.968 154.248 25.472C153.986 25.9573 153.856 26.508 153.856 27.124V34.292C153.856 34.7773 153.697 35.188 153.38 35.524C153.062 35.8413 152.661 36 152.176 36C151.69 36 151.289 35.8413 150.972 35.524C150.654 35.188 150.496 34.7773 150.496 34.292V22.728C150.496 22.2427 150.654 21.8413 150.972 21.524C151.289 21.188 151.69 21.02 152.176 21.02C152.661 21.02 153.062 21.188 153.38 21.524C153.697 21.8413 153.856 22.2427 153.856 22.728V23.932L153.436 23.848C153.604 23.5307 153.846 23.1947 154.164 22.84C154.481 22.4667 154.854 22.1213 155.284 21.804C155.713 21.4867 156.198 21.2347 156.74 21.048C157.281 20.8427 157.869 20.74 158.504 20.74Z" fill="#3B82F6"/>
</svg>
